<svg width="217" height="50" viewBox="0 0 217 50" fill="none" xmlns="http://www.w3.org/2000/svg">
                        <g clip-path="url(#clip0_1852_1180)">
                            <path d="M47.5334 19.0388H36.6003V45.6878H47.5334V19.0388Z" fill="#E41A27"></path>
                            <path d="M59.8803 25.499H48.9473V49.9946H59.8803V25.499Z" fill="#1B1E55"></path>
                            <path d="M167.699 14.9543H156.766V28.2815H167.699V14.9543Z" fill="#E41A27"></path>
                            <path d="M168.86 38.8262H179.793V9.2319H168.86V38.8262Z" fill="#1B1E55"></path>
                            <path d="M60.9976 32.366H71.9307V-5.72205e-05H60.9976V32.366Z" fill="#E41A27"></path>
                            <path d="M84.1049 9.23193H73.1719V44.8959H84.1049V9.23193Z" fill="#1B1E55"></path>
                            <path d="M140.146 6.9917H129.213V36.2334H140.146V6.9917Z" fill="#E41A27"></path>
                            <path d="M0.563477 28.3521L0.563477 32.366H35.1056V28.3521H0.563477Z" fill="#1B1E55">
                            </path>
                            <path d="M0.563477 23.2046L0.563477 27.2185L35.1056 27.2185V23.2046H0.563477Z" fill="#1B1E55"></path>
                            <path d="M85.5781 28.3521V32.366H127.152V28.3521L85.5781 28.3521Z" fill="#1B1E55">
                            </path>
                            <path d="M143.61 25.2062V42.7534H155.925V25.2062H143.61Z" fill="#1B1E55"></path>
                            <path d="M14.2649 33.646V37.6599H35.111V33.646H14.2649Z" fill="#1B1E55"></path>
                            <path d="M182.026 34.6604V38.6743H216.568V34.6604H182.026Z" fill="#E41A27"></path>
                            <path d="M182.026 28.7156V32.7295H216.568V28.7156H182.026Z" fill="#E41A27"></path>
                            <path d="M182.026 40.7464V44.7603H202.872V40.7464H182.026Z" fill="#E41A27"></path>
                        </g>
                        <defs>
                            <clipPath id="clip0_1852_1159">
                                <rect width="216" height="50" fill="white" transform="translate(0.563477)"></rect>
                            </clipPath>
                        </defs>
                    </svg>