<svg width="209" height="37" viewBox="0 0 209 37" fill="none" xmlns="http://www.w3.org/2000/svg">
                                                <g clip-path="url(#clip0_2016_126)">
                                                    <path d="M2.65383 13.1774L0.417969 36.1571H12.5231L13.8846 22.2032H25.2191L23.8547 36.1571H35.9576L39.397 0.949524H27.2911L26.1007 13.1781H15.1679L2.65383 13.1774Z" fill="#00999C"></path>
                                                    <path d="M14.9105 11.7105L15.961 0.948853H3.85518L2.80322 11.7105H14.9105Z" fill="#F08B00"></path>
                                                    <path d="M41.9788 9.30594L39.4805 36.1571H50.3763L52.8725 9.30594H41.9788ZM53.1451 7.80327L53.8142 0.948853H42.9191L42.2499 7.80327H53.1451ZM68.6932 15.3474C69.5762 15.3474 70.4259 15.5925 71.0414 16.0875C71.712 16.5273 72.1441 17.1701 72.1187 18.0124H82.0243C82.3875 11.4521 75.1115 9.92213 68.9455 9.92213C63.226 9.92213 55.3033 11.5998 54.6704 18.0621C54.2427 22.4511 57.3681 24.8171 65.5525 26.0971C70.5368 26.8849 71.4293 27.3316 71.2864 28.8091C71.1407 30.29 68.8374 30.7858 67.407 30.7858C66.0847 30.7858 65.0704 30.4889 64.5651 30.045C63.7995 29.405 63.4319 28.6627 63.4653 27.7784H53.0646C52.5839 34.3828 59.7185 36.7992 66.4326 36.7992C73.3672 36.7992 81.1477 34.8806 81.8379 27.7784C82.2476 23.5834 79.2468 21.662 75.7161 20.6263C72.1883 19.5396 68.0856 19.3449 66.337 18.6475C65.7533 18.4088 65.1255 18.0628 65.1994 17.322C65.3611 15.6443 67.1518 15.3474 68.6932 15.3474ZM93.4443 20.4758C94.2113 17.7113 96.2297 16.1842 99.4733 16.1842C102.284 16.1842 104.078 18.1105 103.844 20.4758H93.4443ZM99.097 9.92283C90.0716 9.92283 83.4264 15.9874 82.7029 23.4342C81.8706 31.9677 88.2773 36.7992 97.4056 36.7992C103.902 36.7992 110.151 34.2343 112.893 28.7103H102.71C101.709 29.9434 99.727 30.5337 97.9646 30.5337C94.5542 30.5337 92.886 28.4667 92.8947 25.5566H113.802C114.778 15.5946 110.431 9.92283 99.097 9.92283ZM137.064 9.92283C132.719 9.92283 129.67 11.2525 127.384 13.8188H127.274L127.588 10.5656H117.081L114.582 36.1571H125.479L126.798 22.6472C127.195 18.5509 129.752 17.7113 131.624 17.7113C134.814 17.7113 134.996 19.784 134.712 22.7438L133.398 36.1571H144.295L146.005 18.6041C146.579 12.7328 142.174 9.92283 137.064 9.92283ZM162.339 15.3474C163.215 15.3474 164.074 15.5925 164.687 16.0875C165.357 16.5273 165.792 17.1701 165.762 18.0124H175.67C176.032 11.4521 168.749 9.92213 162.59 9.92213C156.871 9.92213 148.944 11.5998 148.315 18.0621C147.888 22.4511 151.013 24.8171 159.196 26.0971C164.184 26.8849 165.074 27.3316 164.93 28.8091C164.784 30.29 162.481 30.7858 161.05 30.7858C159.729 30.7858 158.714 30.4889 158.205 30.045C157.444 29.405 157.076 28.6627 157.107 27.7784H146.706C146.229 34.3828 153.368 36.7992 160.077 36.7992C167.012 36.7992 174.79 34.8806 175.485 27.7784C175.891 23.5834 172.89 21.662 169.361 20.6263C165.833 19.5396 161.727 19.3449 159.982 18.6475C159.397 18.4088 158.768 18.0628 158.842 17.322C159.004 15.6443 160.795 15.3474 162.339 15.3474ZM187.09 20.4758C187.851 17.7113 189.876 16.1842 193.119 16.1842C195.927 16.1842 197.721 18.1105 197.487 20.4758H187.09ZM192.741 9.92283C183.717 9.92283 177.074 15.9874 176.35 23.4342C175.516 31.9677 181.92 36.7992 191.055 36.7992C197.548 36.7992 203.794 34.2343 206.532 28.7103H196.358C195.352 29.9434 193.375 30.5337 191.612 30.5337C188.199 30.5337 186.529 28.4667 186.542 25.5566H207.445C208.418 15.5946 204.078 9.92283 192.741 9.92283Z" fill="#00999C"></path>
                                                </g>
                                                <defs>
                                                    <clipPath id="clip0_2016_126">
                                                        <rect width="208" height="36" fill="white" transform="translate(0.417969 0.874023)"></rect>
                                                    </clipPath>
                                                </defs>
                                            </svg>