<svg width="209" height="119" viewBox="0 0 150 77" fill="none" xmlns="http://www.w3.org/2000/svg">
                                                <g clip-path="url(#clip0_2053_30)">
                                                    <path d="M25.9307 73.442C25.9307 71.3436 27.3193 69.8839 29.372 69.8839C31.5455 69.8839 32.8435 71.4957 32.6926 73.7765H27.2891C27.3495 75.0842 28.1645 75.8444 29.4626 75.8444C30.3984 75.8444 31.0323 75.5099 31.3644 74.8713L32.602 75.0537C32.0587 76.331 30.9719 76.9696 29.4626 76.9696C27.3495 76.9696 25.9609 75.5707 25.9609 73.442H25.9307ZM31.4247 72.7425C31.3342 71.6477 30.5795 70.9483 29.4022 70.9483C28.2249 70.9483 27.4702 71.5565 27.3193 72.7425H31.4549H31.4247Z" fill="#00ADEE"></path>
                                                    <path d="M34.5038 73.442C34.5038 71.0699 35.9226 69.8839 37.6131 69.8839C38.6696 69.8839 39.6356 70.4009 40.0281 71.3436V70.0056H41.3563V76.8176H40.0281V75.5099C39.6356 76.4222 38.6998 76.9696 37.6131 76.9696C35.9226 76.9696 34.4736 75.7836 34.4736 73.4116L34.5038 73.442ZM40.0583 73.442C40.0583 71.9518 39.1828 71.0395 37.915 71.0395C36.6471 71.0395 35.8019 71.9518 35.8019 73.442C35.8019 74.9321 36.6471 75.8748 37.9452 75.8748C39.1828 75.8748 40.0583 74.9625 40.0583 73.442Z" fill="#00ADEE"></path>
                                                    <path d="M45.2808 67.7855H43.9224V76.8479H45.2808V67.7855Z" fill="#00ADEE"></path>
                                                    <path d="M24.4212 68.485V76.8479H23.0628V73.3811H19.229V76.8479H17.8706V68.485H19.229V72.3167H23.0628V68.485H24.4212Z" fill="#00ADEE"></path>
                                                    <path d="M48.1182 74.111V71.0395H47.1221V70.0055H48.1182V68.7587L49.4465 68.485V70.0359H51.469V71.0699H49.4465V73.9893C49.4465 75.3882 49.8087 75.9052 50.8351 75.9052C50.9558 75.9052 51.137 75.9052 51.3785 75.8444L51.5596 76.8784C51.2879 76.9392 50.9257 76.9696 50.6238 76.9696C48.9031 76.9696 48.0881 76.2397 48.0881 74.1414L48.1182 74.111Z" fill="#00ADEE"></path>
                                                    <path d="M53.4917 67.7855H54.8199V71.2523C55.0916 70.4617 55.8161 69.8839 57.0538 69.8839C58.8348 69.8839 59.8008 70.857 59.8008 73.1378V76.8479H58.4726V73.2595C58.4726 71.7389 57.899 71.0699 56.6312 71.0699C55.3633 71.0699 54.8199 71.891 54.8199 73.4115V76.8479H53.4917V67.7855Z" fill="#00ADEE"></path>
                                                    <path d="M67.8608 68.2113H66.4722V76.848H67.8608V68.2113Z" fill="#00ADEE"></path>
                                                    <path d="M70.4868 70.0056H71.8151V71.2524C72.1169 70.4009 72.9018 69.8839 74.0489 69.8839C75.9205 69.8839 76.7959 70.9787 76.7959 73.1379V76.848H75.4677V73.2595C75.4677 71.7694 74.8941 71.0699 73.6263 71.0699C72.3584 71.0699 71.8151 71.9214 71.8151 73.4116V76.848H70.4868V70.0056Z" fill="#00ADEE"></path>
                                                    <path d="M78.7279 75.2058L79.9354 74.8713C80.2675 75.4795 80.9618 75.814 81.9278 75.814C82.9843 75.814 83.5579 75.4795 83.5579 74.8713C83.5579 73.3203 79.0298 74.7192 79.0298 71.8606C79.0298 70.705 80.2675 69.9143 81.8372 69.9143C83.0749 69.9143 84.3126 70.5225 84.7352 71.4653L83.5579 71.7998C83.256 71.2828 82.6221 71.0091 81.8674 71.0091C80.9316 71.0091 80.3279 71.3436 80.3279 71.891C80.3279 73.442 84.8861 72.0127 84.8861 74.8408C84.8861 76.1485 83.739 76.9696 81.8976 76.9696C80.358 76.9696 79.1204 76.2702 78.6978 75.2058H78.7279Z" fill="#00ADEE"></path>
                                                    <path d="M86.8184 73.7461V70.0359H88.1466V73.6548C88.1466 75.145 88.69 75.8444 89.9578 75.8444C91.2257 75.8444 91.7691 74.9929 91.7691 73.4724V70.0359H93.0973V76.8784H91.7691V75.6315C91.4672 76.483 90.6823 77 89.5654 77C87.6938 77 86.8184 75.9052 86.8184 73.7461Z" fill="#00ADEE"></path>
                                                    <path d="M95.6631 70.0055H96.9913V71.1611C97.263 70.4313 97.9573 69.7622 99.3761 69.9751L99.2252 71.2828C97.6856 71.0091 96.9913 71.8302 96.9913 73.5028V76.8784H95.6631V70.0359V70.0055Z" fill="#00ADEE"></path>
                                                    <path d="M100.402 73.442C100.402 71.0699 101.821 69.8839 103.512 69.8839C104.568 69.8839 105.534 70.4009 105.927 71.3436V70.0056H107.255V76.8176H105.927V75.5099C105.534 76.4222 104.598 76.9696 103.512 76.9696C101.821 76.9696 100.372 75.7836 100.372 73.4116L100.402 73.442ZM105.987 73.442C105.987 71.9518 105.111 71.0395 103.844 71.0395C102.576 71.0395 101.73 71.9518 101.73 73.442C101.73 74.9321 102.576 75.8748 103.874 75.8748C105.111 75.8748 105.987 74.9625 105.987 73.442Z" fill="#00ADEE"></path>
                                                    <path d="M109.821 70.0056H111.149V71.2524C111.451 70.4009 112.236 69.8839 113.383 69.8839C115.254 69.8839 116.13 70.9787 116.13 73.1379V76.848H114.802V73.2595C114.802 71.7694 114.228 71.0699 112.96 71.0699C111.692 71.0699 111.149 71.9214 111.149 73.4116V76.848H109.821V70.0056Z" fill="#00ADEE"></path>
                                                    <path d="M118.062 73.442C118.062 71.374 119.451 69.8839 121.443 69.8839C123.164 69.8839 124.19 70.6746 124.613 72.2255L123.466 72.4384C123.133 71.4653 122.5 71.0091 121.503 71.0091C120.266 71.0091 119.42 71.9823 119.42 73.4116C119.42 74.8409 120.266 75.814 121.503 75.814C122.439 75.814 123.133 75.297 123.435 74.3847L124.582 74.5976C124.22 76.0573 123.073 76.9392 121.443 76.9392C119.481 76.9392 118.092 75.4795 118.092 73.4116L118.062 73.442Z" fill="#00ADEE"></path>
                                                    <path d="M126.212 73.442C126.212 71.3436 127.601 69.8839 129.654 69.8839C131.827 69.8839 133.125 71.4957 132.974 73.7765H127.571C127.631 75.0842 128.446 75.8444 129.744 75.8444C130.68 75.8444 131.314 75.5099 131.646 74.8713L132.884 75.0537C132.34 76.331 131.254 76.9696 129.744 76.9696C127.631 76.9696 126.243 75.5707 126.243 73.442H126.212ZM131.706 72.7425C131.616 71.6477 130.861 70.9483 129.684 70.9483C128.507 70.9483 127.752 71.5565 127.601 72.7425H131.737H131.706Z" fill="#00ADEE"></path>
                                                    <path d="M150 0H91.8594V58.3582H150V0Z" fill="#00ADEE"></path>
                                                    <path d="M121.292 15.1445C122.62 15.1445 123.345 14.5667 123.768 13.8977V13.9889C123.617 14.6275 124.13 14.9925 124.643 14.9925H125.066L126.243 8.24128H124.794L124.613 9.27525C124.341 8.72786 123.617 8.11964 122.409 8.11964C120.296 8.11964 119.028 9.88346 118.817 11.7385C118.545 13.8977 119.934 15.1445 121.353 15.1445H121.292ZM122.56 9.21443C125.005 9.36648 124.22 14.0497 121.715 13.9281C119.481 13.8064 120.175 9.09278 122.56 9.21443ZM102.395 7.78512C102.395 6.26458 101.429 5.56514 99.7083 5.56514H96.3877L94.6973 15.0229H97.7462C98.4405 15.0229 99.1046 15.0229 99.4668 14.9316C101.157 14.5667 101.852 13.3199 102.003 12.4076C102.184 11.1607 101.399 10.3092 100.493 10.0963C101.188 9.9747 102.395 9.24484 102.395 7.81553V7.78512ZM98.8329 13.8369C98.6518 13.8673 98.3499 13.8977 97.6858 13.8977H96.5991L97.1424 10.735H98.7725C100.946 10.735 100.735 13.3503 98.8027 13.8369H98.8329ZM99.4668 9.51853C99.2555 9.57936 98.9838 9.60977 98.4707 9.60977H97.3236L97.8669 6.5991H99.3461C101.127 6.5991 101.006 9.03196 99.4668 9.51853ZM108.855 8.24128H108.432C108.432 8.24128 107.798 11.9514 107.708 12.3771C107.557 13.2895 107.134 13.8977 105.897 13.8977C105.202 13.8977 104.538 13.4719 104.689 12.5292C104.75 12.1643 105.202 9.45771 105.263 9.24484C105.384 8.51498 104.78 8.24128 104.267 8.24128H103.874C103.784 8.81909 103.361 11.1911 103.18 12.1034C103.119 12.4684 103.089 12.8637 103.119 13.107C103.27 14.3538 104.357 15.1445 105.746 15.1445C108.1 15.1445 108.976 13.8977 109.278 12.438C109.368 11.9514 109.821 9.51854 109.851 9.27525C109.942 8.54539 109.338 8.24128 108.885 8.24128H108.855ZM111.27 17.6382L111.964 13.9281C112.236 14.4755 112.991 15.1445 114.198 15.1445C116.372 15.1445 117.7 13.4415 117.851 11.4648C118.002 9.33607 116.764 8.11964 115.315 8.11964C114.077 8.11964 113.232 8.72785 112.779 9.36648V9.27525C112.93 8.63662 112.387 8.27169 111.904 8.27169H111.451C111.451 8.27169 110.183 15.5399 110.002 16.4218C109.791 17.4557 110.636 17.699 110.878 17.699H111.27V17.6382ZM114.802 9.30566C117.066 9.4273 116.372 14.1714 113.957 14.0193C111.481 13.8673 112.296 9.15361 114.802 9.30566ZM146.317 17.8207C145.714 17.8207 144.838 17.7903 144.325 17.6078C143.721 17.3949 143.178 16.9996 142.634 16.5434C142.333 16.3305 142.061 16.0873 141.759 15.9048C141.367 15.6311 141.065 15.5399 140.763 15.5399C140.34 15.5399 139.948 15.7527 139.465 16.2697C138.801 16.9388 137.774 18.4897 137.352 19.1283C137.352 19.1587 137.291 19.2196 137.231 19.2196C137.14 19.2196 137.14 19.0979 137.14 19.0371C137.14 17.2733 136.839 7.66348 136.657 4.80487C136.567 3.52762 136.174 2.73694 135.631 2.73694C135.178 2.73694 134.544 3.31474 134.122 4.98733C133.065 9.18402 130.831 18.5809 129.865 23.325C129.865 23.4467 129.684 23.4467 129.654 23.325C129.563 22.8384 129.443 22.291 129.352 21.8349C129.05 20.3752 128.839 19.0979 128.326 18.3985C127.782 17.6078 126.937 17.547 125.941 18.216C125.699 18.3681 125.488 18.5505 125.277 18.733C124.613 19.2804 123.918 19.919 122.681 19.919H110.847L110.546 21.5004H122.983C124.251 21.5004 125.428 20.7705 126.152 20.2535C126.515 19.9798 126.756 19.8278 126.967 19.8278C127.239 19.8278 127.36 20.1015 127.45 20.5272C127.511 20.7401 127.571 21.0138 127.631 21.3483C127.873 22.4431 128.205 24.1461 128.658 25.3017C128.869 25.8187 129.171 26.1228 129.533 26.1228C130.077 26.1228 130.62 25.4842 130.952 24.4806C131.375 23.1425 133.88 12.1947 134.937 7.63307C134.997 7.4506 134.997 7.32896 134.997 7.32896C134.997 7.23773 135.057 7.20732 135.118 7.20732C135.178 7.20732 135.239 7.23773 135.239 7.35937C135.299 12.0122 135.54 20.1623 135.903 21.0138C136.084 21.47 136.386 21.7132 136.748 21.7132C137.171 21.7132 137.654 21.3787 138.046 20.8617C138.227 20.588 138.438 20.2535 138.71 19.8886C139.314 18.9763 139.978 17.9727 140.189 17.7598C140.491 17.4253 140.853 17.4253 141.336 17.7598C141.397 17.8207 141.487 17.8815 141.608 17.9423C142.121 18.3072 142.997 18.8546 143.993 19.0979C144.657 19.2804 145.472 19.3108 146.076 19.3108C146.468 19.3108 146.861 19.3108 146.981 19.3108L147.253 17.8511C147.253 17.8511 146.74 17.8511 146.378 17.8511L146.317 17.8207Z" fill="white"></path>
                                                    <path d="M12.1654 34.6075C8.27128 34.6075 5.61481 36.3713 4.55826 39.2603V35.0332H2.26404C1.02636 35.0332 0 36.0368 0 37.314V58.3887H4.55826V46.6197C4.55826 41.4803 6.3393 38.5913 10.7466 38.5913C15.154 38.5913 17.0256 40.9937 17.0256 46.1027V58.3887H21.5838V45.7378C21.5838 38.348 18.6255 34.6379 12.1956 34.6379L12.1654 34.6075ZM78.3055 35.0028V39.5644C76.9773 36.3409 73.717 34.5466 70.0644 34.5466C64.2987 34.5466 59.4083 38.6217 59.4083 46.6805C59.4083 54.7394 64.3288 58.8752 70.0946 58.8752C73.717 58.8752 77.0074 57.0202 78.3055 53.8879V56.0166C78.3055 57.2635 79.3017 58.2974 80.5695 58.2974H82.8638V34.9724H78.3055V35.0028ZM71.2417 54.9522C66.8948 54.9522 63.9666 51.8503 63.9666 46.6805C63.9666 41.5107 66.8947 38.4392 71.1511 38.4392C75.4075 38.4392 78.4262 41.5715 78.4262 46.6805C78.4262 51.7895 75.4981 54.9522 71.2417 54.9522ZM53.2803 36.7666L46.5184 53.3709L39.032 35.0028H34.0813L44.2242 58.3582H48.8126L59.0461 35.0028H55.9066C54.7595 35.0028 53.7331 35.7022 53.2803 36.7666ZM28.7986 35.4285C28.0137 35.4285 27.259 35.2765 26.5345 35.0028V58.3582H31.0324V35.0028C30.3079 35.2765 29.5532 35.4285 28.7684 35.4285H28.7986Z" fill="#00ADEE"></path>
                                                    <path d="M28.7985 17.699C25.6289 17.699 23.063 20.2535 23.063 23.4163C23.063 26.579 25.6289 29.1335 28.7985 29.1335C31.9682 29.1335 34.5341 26.579 34.5341 23.4163C34.5341 20.2535 31.9682 17.699 28.7985 17.699ZM28.7985 26.1532C27.2892 26.1532 26.0515 24.9368 26.0515 23.4163C26.0515 21.8957 27.2892 20.6793 28.7985 20.6793C30.3079 20.6793 31.5456 21.8957 31.5456 23.4163C31.5456 24.9368 30.3079 26.1532 28.7985 26.1532Z" fill="#FBAE17"></path>
                                                </g>
                                                <defs>
                                                    <clipPath id="clip0_2053_30">
                                                        <rect width="150" height="77" fill="white"></rect>
                                                    </clipPath>
                                                </defs>
                                            </svg>