<svg width="209" height="41" viewBox="0 0 209 41" fill="none" xmlns="http://www.w3.org/2000/svg">
                                                <g clip-path="url(#clip0_2016_141)">
                                                    <path d="M12.5206 6.83534C7.26441 10.2902 1.76108 12.6267 0.737685 13.0498L26.6906 31.159C26.7038 31.1682 26.7145 31.1804 26.7218 31.1947C26.7291 31.2089 26.7328 31.2247 26.7325 31.2407V31.2419C26.7324 31.2581 26.7283 31.2741 26.7204 31.2884C26.7126 31.3026 26.7014 31.3147 26.6877 31.3236L25.5292 32.0834C25.5127 32.0941 25.4933 32.0997 25.4736 32.0995C25.4539 32.0993 25.4346 32.0933 25.4183 32.0822L15.9406 25.5828C12.3242 23.1487 8.335 23.6652 5.62639 24.5279C3.02632 25.3547 1.11047 26.6211 0.63623 26.9514C0.863324 27.1101 20.2412 40.6021 20.3715 40.6937C20.7897 40.3024 23.6287 37.7196 29.5957 34.0521C35.8876 30.1906 39.5972 28.8407 40.4555 28.5551L14.4547 10.4153C14.4416 10.4062 14.4309 10.3941 14.4235 10.38C14.4161 10.3659 14.4122 10.3502 14.4123 10.3342V10.3331C14.4124 10.3169 14.4166 10.301 14.4243 10.2868C14.432 10.2726 14.443 10.2604 14.4565 10.2514L15.5631 9.52034C15.5793 9.5097 15.5982 9.50403 15.6176 9.50403C15.637 9.50403 15.656 9.5097 15.6722 9.52034C15.707 9.54268 19.193 11.8228 25.4596 16.2185C31.3351 20.3367 39.53 15.3981 40.6566 14.6811C40.4183 14.5172 20.7331 0.85359 20.6087 0.766617C20.1161 1.18503 16.485 4.23731 12.5206 6.83534Z" fill="#FF0016"></path>
                                                    <path d="M109.776 9.86471V15.6349H122.698C122.724 15.6352 122.749 15.6457 122.768 15.6642C122.786 15.6826 122.797 15.7075 122.797 15.7336C122.797 15.7607 122.786 15.7865 122.765 15.8059L109.321 28.3124V33.1753H136.483V27.3804H122.96C122.94 27.3803 122.921 27.3742 122.904 27.363C122.888 27.3518 122.875 27.336 122.867 27.3175C122.86 27.2989 122.859 27.2787 122.864 27.2593C122.868 27.2399 122.878 27.2223 122.893 27.2088C122.893 27.2088 136.467 14.7946 136.53 14.7352V9.86353C136.335 9.86471 109.972 9.86471 109.776 9.86471ZM98.8923 9.86471V24.6731C98.8923 26.8368 96.9859 28.1285 93.7924 28.1285C90.553 28.1285 88.6943 26.848 88.6943 24.6149V9.86529H80.3544V25.0885C80.3544 28.3259 81.1826 30.3557 83.04 31.6679C85.0726 33.1059 88.4891 33.7753 93.7919 33.7753C99.0952 33.7753 102.512 33.1059 104.545 31.6679C106.403 30.3557 107.231 28.3253 107.231 25.0885V9.86529L98.8923 9.86471ZM157.499 9.86471V24.6131C157.499 26.8145 155.594 28.1279 152.402 28.1279C149.159 28.1279 147.3 26.8474 147.3 24.6143V9.86471H138.962V25.0879C138.962 28.3253 139.791 30.3551 141.649 31.6673C143.682 33.1053 147.099 33.7747 152.402 33.7747C157.702 33.7747 161.119 33.1053 163.154 31.6673C165.012 30.3545 165.841 28.3248 165.841 25.0879V9.86471H157.499ZM199.562 9.86471V33.1764H208.274V9.86471H199.562ZM186.599 9.86471C186.542 9.91172 177.155 17.9556 177.155 17.9556C177.14 17.968 177.123 17.9759 177.104 17.9786C177.085 17.9812 177.066 17.9783 177.048 17.9702C177.031 17.9626 177.016 17.95 177.006 17.9341C176.995 17.9181 176.99 17.8994 176.99 17.8803V9.86471H168.28V33.1764H176.99V24.9387C176.99 24.8999 177.013 24.8629 177.051 24.8482C177.069 24.8407 177.088 24.8386 177.107 24.8419C177.126 24.8452 177.144 24.8539 177.158 24.867C177.158 24.867 185.871 33.1218 185.928 33.1764H197.599L184.766 21.2882C184.756 21.279 184.748 21.2679 184.742 21.2554C184.737 21.243 184.734 21.2295 184.734 21.2159V21.2135C184.734 21.1859 184.747 21.1589 184.77 21.1401L198.013 9.86412L186.599 9.86471ZM50.2831 16.8866C50.2831 19.4212 51.267 21.1407 53.3792 22.296C55.3222 23.3591 58.242 24.0213 63.1425 24.5114L64.0686 24.5908C66.1926 24.7594 68.5998 24.9498 68.5998 26.684C68.5998 27.8717 67.3063 28.5275 64.9575 28.5275C63.8102 28.5275 62.1262 28.2384 60.7152 25.7761H49.7847C49.8094 28.4758 50.8134 30.3287 52.9469 31.5939C55.3541 33.0225 59.2766 33.7159 64.9398 33.7159C77.5697 33.7159 78.5512 27.8552 78.5512 26.0593C78.5512 21.894 74.8257 19.393 67.1606 18.4151L65.9567 18.2635C62.4588 17.8304 59.696 17.4884 59.696 16.2655C59.696 15.7924 59.8529 15.3963 60.162 15.089C60.9701 14.2845 62.6364 14.2868 63.3478 14.2874H63.4144C64.0691 14.2874 66.3112 14.4825 67.843 16.9424H77.749C77.6788 12.0196 72.4787 9.19654 63.4474 9.19654C51.566 9.19595 50.2831 14.5736 50.2831 16.8866Z" fill="#015CD0"></path>
                                                </g>
                                                <defs>
                                                    <clipPath id="clip0_2016_141">
                                                        <rect width="208" height="40.2846" fill="white" transform="translate(0.417969 0.589355)"></rect>
                                                    </clipPath>
                                                </defs>
                                            </svg>