<svg id="Layer_189574" width="200" height="74" data-name="Layer 12525" xmlns="http://www.w3.org/2000/svg" viewBox="0 0 163.45 57.8">
                            <defs>
                                <style>
                                .cls-1 {
                                    fill: #fff;
                                }
                                </style>
                            </defs>
                            <g>
                                <path class="cls-1" d="m34.59,0C18.69,0,5.8,12.89,5.8,28.79c0,3.25.54,6.38,1.54,9.3h4.05c-1.17-2.92-1.78-6.06-1.78-9.3,0-6.68,2.6-12.95,7.32-17.67s11-7.32,17.67-7.32,12.95,2.6,17.67,7.32c4.72,4.72,7.32,11,7.32,17.67,0,3.24-.61,6.38-1.78,9.3h4.05c.99-2.92,1.54-6.04,1.54-9.3-.02-15.9-12.91-28.79-28.81-28.79ZM13.88,32.44c1.25-.35,2.3.28,2.67,1.6l.4,1.44-4.13,1.16-.4-1.44c-.37-1.32.21-2.41,1.46-2.76Zm1.97,1.83c-.24-.87-.88-1.22-1.74-.98s-1.24.88-.99,1.74l.16.59,2.73-.76s-.16-.59-.16-.59Zm-4.37-4.06v-.86l2.66.03c.59,0,.9-.31.91-.86,0-.55-.3-.88-.89-.88l-2.65-.03v-.87l2.66.03c1.13.01,1.67.83,1.66,1.77s-.57,1.71-1.7,1.69l-2.65-.03h0Zm1.53-9.92l4.11,1.24-.25.82-3.38,1.01,2.82.85-.25.82-4.11-1.25.25-.82,3.39-1.01-2.82-.85.25-.82h-.01Zm5.1-6.23c-.2-.19-.41-.16-.57,0-.16.17-.15.4,0,.54.16.14.38.17.77.16l1.52-.1s-.01-.03-.02-.06l-.2-.65.6-.67.28.82c.07.17.12.34.16.5l1.46-.09-.7.79-.65.04c0,.54-.18,1.01-.57,1.44-.64.72-1.44.84-2.04.31-.41-.37-.56-.92-.35-1.58-.36-.01-.59-.11-.8-.29-.44-.39-.46-1.04.06-1.63.54-.6,1.18-.58,1.6-.17l-.56.62v.02Zm1.89,1.34l-1.48.09c-.14.42-.07.74.16.94.27.24.68.21.99-.14.23-.26.33-.56.33-.9h0Zm7.04-3.81l-1.68.77-1.78-3.9,1.61-.73c.82-.37,1.46-.15,1.73.43.22.48.07.9-.26,1.2.48-.12.98.14,1.18.6.28.62,0,1.27-.81,1.64h.01Zm-1.67-3.2l-.72.33.45.98.72-.33c.37-.17.51-.43.36-.75-.14-.31-.44-.4-.81-.23Zm.78,1.56l-.77.35.48,1.05.79-.36c.38-.17.52-.46.37-.79-.15-.34-.48-.43-.86-.25h-.01Zm4.67-3.91c1.02-.17,1.62.34,1.74,1.05.08.52-.11,1.08-.76,1.38l1.29,1.55-.98.16-1.2-1.5-.4.07.27,1.65-.85.14-.7-4.23,1.59-.26h0Zm.09.7l-.71.12.2,1.24.71-.12c.47-.08.64-.36.58-.74-.06-.38-.31-.58-.79-.5h.01Zm6.59,2.68l-1.7-.18-.37.78-.9-.1,2-4.1,1,.11,1.07,4.43-.9-.1-.19-.84h0Zm-.58-2.56l-.81,1.72,1.23.13-.42-1.85Zm7.45,3.39c-.5,1.2-1.65,1.63-2.91,1.1l-1.38-.58,1.65-3.96,1.38.58c1.26.53,1.76,1.65,1.26,2.86Zm-2.66.42c.83.35,1.5.07,1.85-.75.34-.82.08-1.51-.76-1.86l-.56-.23-1.09,2.61.56.23Zm4.33,3.38c-.7-.55-.95-1.34-.46-1.99l.73.57c-.19.29-.15.61.16.85.32.25.64.23.83-.01.57-.73-1.51-1.65-.55-2.87.48-.61,1.26-.59,1.96-.04.69.54.89,1.27.45,1.91l-.74-.58c.16-.23.12-.55-.17-.78-.26-.22-.56-.24-.78.03-.53.68,1.5,1.66.56,2.85-.42.53-1.22.68-1.99.07h0Zm5.67-.68l1.93,2.48-.55.43-.7-.9-2.84,2.21-.53-.68,2.84-2.21-.7-.9s.55-.43.55-.43Zm3.94,6.26c.41.95.07,1.66-.59,1.94-.48.21-1.08.15-1.52-.4l-1.19,1.63-.4-.91,1.16-1.53-.16-.37-1.53.67-.34-.79,3.93-1.71.64,1.48h0Zm-.67.25l-.29-.66-1.16.5.29.66c.19.44.51.54.86.38.35-.15.48-.44.29-.88h0Zm1.75,6.45l-.26-1.61-1.06.17.23,1.42-.67.11-.23-1.42-1.12.18.26,1.61-.69.11-.4-2.45,4.24-.7.4,2.45-.69.11v.02Zm-.04,5.06l.1-1.63-1.07-.07-.09,1.44-.68-.04.09-1.44-1.13-.07-.1,1.62-.7-.04.15-2.48,4.29.26-.15,2.48-.7-.04h0Zm.28,2.56l-.92,3.01-.66-.2.33-1.09-3.44-1.05.25-.82,3.44,1.05.33-1.09.66.2h0Zm-16.99-14.2l-.05,2.78c.56.2,1.08.54,1.51.99,1.52,1.6,1.46,4.13-.14,5.66l-.42.4,1.86,1.95.42-.4c2.67-2.55,2.78-6.79.23-9.46-.96-1-2.15-1.64-3.41-1.92Zm-13-2.82l17.53,18.41-1.95,1.86-2.74-2.88-2.65,2.52c-2.67,2.55-6.92,2.44-9.46-.23s-2.44-6.92.23-9.47l1.65-1.57,1.86,1.95-1.65,1.57c-1.6,1.52-1.66,4.06-.14,5.66s4.06,1.66,5.66.14l2.65-2.52-11.08-11.64.1-3.8h0Zm1.7-2.82l-1.22,1.16s-.07.07-.11.1l1.85,1.95.11-.11,1.22-1.16c1.18-1.12,3.06-1.08,4.18.1l.22.23c1.12,1.18,1.08,3.06-.1,4.18l-1.22,1.16s-.07.07-.11.1l1.85,1.95s.07-.07.11-.1l1.22-1.16c2.25-2.15,2.34-5.73.2-7.98l-.22-.23c-2.15-2.25-5.73-2.34-7.98-.2h0Z">
                                </path>
                                <g>
                                    <path class="cls-1" d="m63.1,57.8H4.84c-2.67,0-4.84-2.17-4.84-4.84v-6.38c0-3.3,2.68-5.98,5.98-5.98h57.13c2.67,0,4.84,2.17,4.84,4.84v7.52c0,2.67-2.17,4.84-4.84,4.84h0Z">
                                    </path>
                                    <path class="cls-11" d="m23.27,45.45c0,1.81-1.18,2.91-3.11,2.91h-1.82v-5.85h1.82c1.92,0,3.11,1.13,3.11,2.94Zm-3.11,2.28c1.53,0,2.33-.86,2.33-2.28s-.8-2.32-2.33-2.32h-1.06v4.6h1.06Z">
                                    </path>
                                    <path class="cls-11" d="m27.2,42.51h.76v3.7c0,1.07.58,1.54,1.44,1.54s1.44-.46,1.44-1.54v-3.7h.76v3.69c0,1.52-1,2.22-2.21,2.22s-2.2-.7-2.2-2.22v-3.69h0Z">
                                    </path>
                                    <g>
                                        <path class="cls-11" d="m12.39,56.04l-1.43-2.22h-1.12v2.22h-.7v-5.6h2.25c1.02,0,1.76.65,1.76,1.69s-.69,1.56-1.45,1.63l1.51,2.28h-.82Zm-1.07-4.98h-1.47v2.14h1.47c.66,0,1.12-.44,1.12-1.07s-.45-1.07-1.12-1.07Z">
                                        </path>
                                        <path class="cls-11" d="m14.42,56.04v-5.6h3.67v.62h-2.97v1.81h2.91v.62h-2.91v1.93h2.97v.62h-3.67Z">
                                        </path>
                                        <path class="cls-11" d="m22.02,50.34c.99,0,1.68.44,2.18,1.05l-.55.34c-.35-.45-.95-.77-1.62-.77-1.23,0-2.16.94-2.16,2.28s.93,2.28,2.16,2.28c.67,0,1.23-.33,1.5-.6v-1.14h-1.92v-.62h2.62v2.02c-.52.58-1.28.97-2.2.97-1.6,0-2.88-1.17-2.88-2.9s1.28-2.9,2.88-2.9h0Z">
                                        </path>
                                        <path class="cls-11" d="m25.52,56.04v-5.6h.7v5.6h-.7Z"></path>
                                        <path class="cls-11" d="m27.77,54.72c.37.41.97.8,1.76.8,1,0,1.32-.54,1.32-.97,0-.67-.68-.86-1.42-1.06-.9-.24-1.9-.49-1.9-1.59,0-.92.82-1.55,1.92-1.55.86,0,1.52.29,1.99.78l-.42.51c-.42-.46-1.01-.67-1.62-.67-.67,0-1.15.36-1.15.89,0,.56.65.73,1.36.92.92.24,1.96.53,1.96,1.7,0,.81-.55,1.65-2.07,1.65-.97,0-1.69-.37-2.15-.89l.41-.53h.01Z">
                                        </path>
                                        <path class="cls-11" d="m34.12,56.04v-4.98h-1.77v-.62h4.25v.62h-1.78v4.98h-.7Z">
                                        </path>
                                        <path class="cls-11" d="m37.68,56.04v-5.6h3.67v.62h-2.97v1.81h2.91v.62h-2.91v1.93h2.97v.62h-3.67Z">
                                        </path>
                                        <path class="cls-11" d="m45.87,56.04l-1.43-2.22h-1.12v2.22h-.7v-5.6h2.25c1.02,0,1.75.65,1.75,1.69s-.69,1.56-1.45,1.63l1.51,2.28h-.82.01Zm-1.07-4.98h-1.47v2.14h1.47c.66,0,1.12-.44,1.12-1.07s-.45-1.07-1.12-1.07Z">
                                        </path>
                                        <path class="cls-11" d="m47.9,56.04v-5.6h3.67v.62h-2.97v1.81h2.91v.62h-2.91v1.93h2.97v.62h-3.67Z">
                                        </path>
                                        <path class="cls-11" d="m52.85,56.04v-5.6h1.91c1.74,0,2.87,1.22,2.87,2.8s-1.13,2.8-2.87,2.8h-1.91Zm.7-.62h1.22c1.36,0,2.15-.97,2.15-2.17s-.76-2.18-2.15-2.18h-1.22v4.36h0Z">
                                        </path>
                                    </g>
                                    <path class="cls-11" d="m40.07,48.36l-3.27-4.52v4.52h-.7v-5.6h.71l3.22,4.42v-4.42h.7v5.6h-.67,0Z">
                                    </path>
                                    <path class="cls-11" d="m46.85,48.42c-1.18,0-2.01-.65-2.02-1.62h.81c.05.49.39.97,1.21.97.74,0,1.18-.42,1.18-.97,0-1.58-3.17-.57-3.17-2.75,0-.97.78-1.62,1.94-1.62s1.85.61,1.94,1.5h-.84c-.05-.39-.42-.84-1.13-.85-.63-.02-1.13.31-1.13.94,0,1.51,3.16.57,3.16,2.74,0,.83-.68,1.65-1.95,1.65h0Z">
                                    </path>
                                    <path class="cls-11" d="m49.39,43.81c0-.82.66-1.48,1.48-1.48s1.48.65,1.48,1.48-.65,1.48-1.48,1.48-1.48-.66-1.48-1.48Zm.2,0c0,.7.57,1.28,1.28,1.28s1.28-.58,1.28-1.28-.57-1.27-1.28-1.27-1.28.56-1.28,1.27Zm1.69.85l-.44-.67h-.31v.67h-.22v-1.69h.69c.29,0,.54.2.54.52,0,.38-.33.5-.43.5l.45.68h-.28Zm-.75-1.51v.63h.47c.17,0,.31-.13.31-.31,0-.19-.13-.32-.31-.32h-.47Z">
                                    </path>
                                    <g>
                                        <path class="cls-11" d="m58.37,51.74v-1.31h-.47v-.16h1.12v.16h-.47v1.31s-.18,0-.18,0Z"></path>
                                        <path class="cls-11" d="m60.58,51.74v-1.23l-.5,1.23h-.08l-.5-1.23v1.23h-.18v-1.48h.26l.46,1.13.46-1.13h.26v1.48s-.18,0-.18,0Z">
                                        </path>
                                    </g>
                                </g>
                            </g>
                            <g>
                                <path class="cls-1" d="m81.49,38.87v-20.01h8.4c6.3,0,10.83,3.78,10.83,9.99s-4.53,10.02-10.8,10.02h-8.43Zm5.16-4.5h3.24c3.51,0,5.55-2.55,5.55-5.52s-1.86-5.49-5.52-5.49h-3.27v11.01Z">
                                </path>
                                <path class="cls-1" d="m103.3,18.87h5.25v11.73c0,2.37,1.26,4.08,4.05,4.08s4.02-1.71,4.02-4.08v-11.73h5.25v11.88c0,4.98-2.85,8.49-9.27,8.49s-9.3-3.54-9.3-8.46v-11.91Z">
                                </path>
                                <path class="cls-1" d="m139.09,38.87l-8.46-12.09v12.09h-5.16v-20.01h5.31l8.1,11.52v-11.52h5.19v20.01h-4.98Z">
                                </path>
                                <path class="cls-1" d="m148.96,32.19c1.44,1.44,3.66,2.64,6.39,2.64,1.77,0,2.85-.75,2.85-1.71,0-1.14-1.29-1.59-3.42-2.04-3.3-.66-7.92-1.5-7.92-6.24,0-3.36,2.85-6.27,7.98-6.27,3.21,0,6,.96,8.13,2.79l-2.82,3.69c-1.68-1.38-3.87-2.07-5.64-2.07s-2.37.69-2.37,1.56c0,1.05,1.23,1.41,3.45,1.83,3.3.69,7.86,1.65,7.86,6.18,0,4.02-2.97,6.69-8.34,6.69-4.05,0-6.87-1.26-8.88-3.18l2.73-3.87Z">
                                </path>
                            </g>
                        </svg>