<svg width="201" height="31" viewBox="0 0 201 31" fill="none" xmlns="http://www.w3.org/2000/svg">
                            <g clip-path="url(#clip0_1852_1238)">
                                <path d="M181.463 12.5051C180.063 17.7868 178.663 22.8572 177.263 27.9276C176.863 29.4065 176.263 30.0403 174.663 30.0403C171.063 29.8291 171.863 30.4629 170.863 26.8713C169.463 22.2234 168.263 17.5755 166.863 12.7164C166.263 17.9981 165.463 23.0685 164.863 28.1389C164.663 29.6178 164.263 30.0403 162.863 30.0403C161.663 30.0403 160.463 30.0403 159.263 30.0403C158.063 30.0403 157.663 29.6178 157.863 28.3502C158.663 23.2798 159.263 18.2093 160.063 13.3502C160.463 9.9699 161.063 6.58961 161.463 3.20933C161.663 1.94173 162.263 1.51919 163.463 1.51919C164.863 1.51919 166.263 1.51919 167.663 1.51919C168.863 1.51919 169.263 1.94173 169.663 2.99806C171.063 7.85722 172.263 12.7164 173.663 17.5755C173.663 17.7868 173.663 18.2093 174.063 18.4206C175.463 13.3502 177.063 8.27975 178.263 3.20933C178.663 1.73046 179.263 1.09666 180.863 1.30792C182.263 1.30792 183.863 1.30792 185.263 1.30792C186.063 1.30792 186.463 1.73046 186.663 2.57553C187.863 11.0262 189.263 19.4769 190.463 27.9276C190.663 29.6178 190.663 29.8291 188.863 29.8291C187.463 29.8291 186.263 29.8291 184.863 29.8291C183.863 29.8291 183.463 29.4065 183.463 28.3502C182.863 23.2798 182.063 17.9981 181.463 12.5051Z" fill="white"></path>
                                <path d="M7.6627 11.2375C8.0627 16.9418 7.8627 22.4347 7.8627 27.7164C7.8627 29.6178 7.8627 29.8291 6.0627 29.8291C4.6627 29.8291 3.0627 29.8291 1.6627 29.8291C0.862695 29.8291 0.462695 29.4065 0.462695 28.5615C0.262695 19.8995 0.262695 11.2375 0.262695 2.57556C0.262695 1.51922 0.662695 1.09669 1.6627 1.09669C7.6627 0.885418 7.6627 0.885417 11.0627 5.95584C13.2627 9.12485 15.4627 12.0826 17.4627 15.2516C18.4627 16.5192 19.0627 17.9981 19.8627 19.6882C19.6627 13.984 19.8627 8.49105 19.6627 2.99809C19.6627 1.51922 20.0627 1.09669 21.4627 1.09669C22.8627 1.09669 24.2627 1.09669 25.6627 1.09669C26.6627 1.09669 27.0627 1.51922 27.0627 2.57556C27.0627 6.58964 27.0627 10.3925 27.0627 14.4065V27.9277C27.0627 29.6178 26.8627 29.6178 25.2627 29.8291C21.4627 30.4629 18.6627 29.1953 16.6627 25.3925C14.6627 21.8009 12.0627 18.6319 9.66269 15.2516C9.06269 14.1953 8.4627 12.9277 7.6627 11.2375Z" fill="white"></path>
                                <path d="M140.663 0.674194C148.863 0.674194 155.063 7.22349 155.063 15.4629C155.063 23.9136 148.663 30.4629 140.663 30.4629C132.663 30.4629 126.063 23.7024 126.063 15.4629C126.063 7.22349 132.663 0.674194 140.663 0.674194ZM147.463 15.6742C147.463 15.2517 147.463 14.6179 147.463 14.1953C147.263 10.815 144.663 8.06856 141.463 7.43476C138.463 7.01222 135.463 8.70236 134.263 11.8714C133.263 14.6179 133.263 17.5756 134.663 20.1108C136.063 22.646 138.663 23.9136 141.263 23.7024C145.263 23.0686 147.463 20.1108 147.463 15.6742Z" fill="white"></path>
                                <path d="M43.4623 1.0968C44.6623 1.0968 45.8623 1.0968 46.8623 1.0968C47.6623 1.0968 48.0623 1.51933 48.4623 2.3644C51.2623 11.0264 54.2623 19.8996 57.0623 28.5616C57.4623 29.4067 57.0623 29.8292 56.2623 29.8292C54.6623 29.8292 52.8623 29.8292 51.2623 29.8292C50.4623 29.8292 50.0623 29.4067 49.6623 28.5616C48.4623 24.7588 48.4623 24.7588 44.6623 24.7588C42.8623 24.7588 41.2623 24.7588 39.4623 24.7588C38.6623 24.7588 38.2623 24.97 38.0623 25.8151V26.0264C36.8623 29.6179 36.8623 29.6179 33.2623 29.6179C32.4623 29.6179 31.6623 29.6179 30.8623 29.6179C29.8623 29.6179 29.4623 29.1954 29.8623 28.1391C30.8623 25.1813 31.8623 22.4348 32.6623 19.4771C34.4623 13.7729 36.4623 8.2799 38.2623 2.57567C38.6623 1.30807 39.2623 0.885532 40.4623 1.0968C41.4623 1.30807 42.4623 1.0968 43.4623 1.0968ZM43.4623 7.01229C42.2623 10.8151 41.2623 14.4067 40.2623 17.9982C40.0623 18.8433 40.4623 18.8433 41.0623 18.8433C42.6623 18.8433 44.2623 18.8433 45.6623 18.8433C46.6623 18.8433 46.8623 18.632 46.6623 17.5757C45.6623 14.1954 44.4623 10.6038 43.4623 7.01229Z" fill="white"></path>
                                <path d="M89.0626 30.4629C85.8626 30.4629 83.0626 29.4066 80.4626 27.0826C79.8626 26.4488 79.6626 26.0263 80.0626 25.1812C80.8626 23.9136 81.6626 22.646 82.2626 21.3784C82.6626 20.5333 83.0626 20.5333 83.6626 21.1671C84.4626 22.2235 85.6626 23.0686 86.8626 23.4911C87.8626 24.1249 89.2626 24.1249 90.4626 23.9136C91.6626 23.7024 92.4626 22.8573 92.6626 21.5897C92.8626 20.3221 92.4626 19.2657 91.2626 18.8432C90.2626 18.4207 89.2626 17.9981 88.2626 17.5756C87.6626 17.3643 87.0626 17.1531 86.4626 16.9418C82.2626 15.4629 80.6626 12.7164 81.0626 8.49109C81.4626 4.68827 84.2626 1.30799 88.0626 0.67419C91.2626 0.0403874 94.4626 0.67419 97.4626 2.36433C98.2626 2.78687 98.6626 3.2094 98.0626 4.26574C97.4626 5.32208 97.0626 6.58968 96.6626 7.85729C96.2626 8.70236 95.8626 8.70236 95.2626 8.27982C93.8626 7.22349 92.2626 6.58968 90.6626 6.80095C89.0626 6.80095 88.2626 7.43475 88.0626 8.49109C87.8626 9.96996 88.6626 10.6038 89.8626 11.0263C91.2626 11.4488 92.6626 11.8714 93.8626 12.2939C100.063 14.6179 101.863 22.2235 97.0626 27.2939C95.0626 29.8291 92.2626 30.6742 89.0626 30.4629Z" fill="white"></path>
                                <path d="M67.0626 30.4628C64.0626 30.4628 61.0626 29.4065 58.6626 27.0826C58.0626 26.4488 57.8626 26.0262 58.4626 25.3924C59.2626 24.1248 59.8626 23.0685 60.4626 21.8009C60.8626 20.9558 61.2626 20.5333 62.2626 21.5896C63.8626 23.2797 65.8626 24.7586 68.4626 24.3361C70.2626 24.1248 71.2626 22.6459 70.8626 20.9558C70.6626 19.8995 70.0626 19.2657 69.2626 18.8431C67.6626 18.2093 66.2626 17.7868 64.8626 17.3642C60.6626 15.8854 58.6626 13.3502 59.0626 9.12481C59.2626 4.89946 62.2626 1.51917 66.0626 0.885372C69.4626 0.251569 72.4626 0.885372 75.4626 2.57551C76.2626 2.99805 76.4626 3.42058 76.0626 4.47692C75.4626 5.53326 75.0626 6.80087 74.6626 7.8572C74.2626 8.70227 73.8626 8.91354 73.0626 8.27974C71.8626 7.2234 70.2626 6.80087 68.6626 6.80087C67.0626 6.80087 66.2626 7.64594 66.0626 8.70227C65.8626 10.1811 66.8626 10.8149 67.8626 11.2375C69.2626 11.8713 70.8626 12.0826 72.2626 12.7164C77.4626 14.829 79.2626 20.9558 76.0626 26.0262C74.2626 29.4065 71.0626 30.4628 67.0626 30.4628Z" fill="white"></path>
                                <path d="M123.463 24.5474V26.0263C123.463 28.7728 123.463 28.7728 121.063 29.6179C113.263 32.3643 105.263 28.139 103.063 19.8996C100.863 11.0263 105.263 2.57562 113.263 0.674215C116.263 0.0404123 119.463 0.25168 122.263 1.51929C123.263 1.94182 123.663 2.36436 123.663 3.42069C123.663 5.3221 123.663 7.22351 123.663 9.12492C123.663 9.54745 123.663 9.96999 123.463 10.1813C123.063 10.3925 122.863 9.96999 122.663 9.75872C120.663 8.06858 118.663 7.01224 116.063 7.64605C112.263 8.49112 109.863 12.5052 110.663 16.9418C111.063 19.6883 112.463 22.0122 115.063 22.8573C117.663 23.7024 120.263 23.2798 122.263 21.3784C122.063 21.1672 122.263 21.1672 122.263 20.9559C122.463 20.7446 122.663 20.3221 123.063 20.5334C123.463 20.7446 123.263 21.1672 123.263 21.3784C123.463 22.4348 123.463 23.4911 123.463 24.5474Z" fill="white"></path>
                                <path d="M195.063 0.462891C192.263 0.462891 190.063 2.9981 190.063 5.74458C190.063 8.49106 192.463 11.0263 195.063 11.0263C197.663 11.0263 200.063 8.49106 200.063 5.53331C200.063 2.78683 197.863 0.462891 195.063 0.462891ZM195.263 10.3925C192.663 10.3925 190.863 8.27979 190.863 5.74458C190.863 3.20937 192.663 1.09669 195.263 1.09669C197.863 1.09669 199.663 2.9981 199.663 5.74458C199.663 8.27979 197.863 10.1812 195.663 10.3925C195.263 10.3925 195.263 10.3925 195.263 10.3925Z" fill="white"></path>
                                <path d="M193.063 8.70231V3.20935H195.463C195.863 3.20935 196.263 3.20935 196.463 3.42062C196.663 3.42062 196.863 3.63189 197.063 4.05442C197.263 4.26569 197.263 4.68822 197.263 4.89949C197.263 5.32203 197.063 5.53329 196.863 5.95583C196.463 6.1671 196.063 6.37836 195.663 6.37836C195.863 6.37836 195.863 6.58963 196.063 6.58963C196.263 6.8009 196.463 7.01217 196.663 7.4347L197.663 8.91358H196.863L196.063 7.64597C195.863 7.22344 195.663 7.01217 195.463 6.8009C195.463 6.58963 195.263 6.58963 195.063 6.37836C195.063 6.37836 194.863 6.1671 194.663 6.1671C194.463 6.1671 194.463 6.1671 194.263 6.1671H193.463V8.70231H193.063ZM193.663 5.53329H195.263C195.463 5.53329 195.863 5.53329 196.063 5.53329C196.263 5.53329 196.463 5.32203 196.463 5.11076C196.463 4.89949 196.663 4.68822 196.663 4.68822C196.663 4.47696 196.663 4.26569 196.463 4.05442C196.263 3.84315 195.863 3.84315 195.663 3.84315H194.063L193.663 5.53329Z" fill="white"></path>
                            </g>
                            <defs>
                                <clipPath id="">
                                    <rect width="200" height="30" fill="white" transform="translate(0.262695 0.462891)"></rect>
                                </clipPath>
                            </defs>
                        </svg>