<svg width="235" height="60" viewBox="0 0 235 60" fill="none" xmlns="http://www.w3.org/2000/svg">
                            <g clip-path="url(#clip0_1852_1268)">
                                <path d="M234.677 44.8293C234.47 44.8293 234.263 44.8293 234.056 44.8293C231.226 44.3412 229.501 45.6662 229.156 48.5255C228.811 51.1059 229.018 53.6863 228.949 56.3364C228.949 57.5917 227.983 58.1497 226.879 57.6615C226.534 57.4523 226.465 57.1733 226.465 56.8246C226.465 52.2915 226.465 47.8281 226.465 43.2951C226.465 42.1095 227.431 42.5279 228.052 42.4582C228.742 42.3884 229.018 42.7371 228.949 43.4345C228.949 43.853 228.742 44.3412 229.156 44.8293C230.605 42.9464 232.123 41.4818 234.677 42.6674C234.677 43.3648 234.677 44.1319 234.677 44.8293Z" fill="white"></path>
                                <path d="M141.933 47.061C141.933 43.9227 141.933 40.7844 141.933 37.6461C141.933 36.7395 142.14 36.3908 143.175 36.3908C145.245 36.3908 147.315 36.2513 149.385 36.5303C152.905 37.0185 154.906 38.9712 155.113 42.5977C155.251 45.3175 154.009 48.0374 150.489 49.223C148.971 49.7809 147.384 49.6414 145.797 49.6414C144.9 49.6414 144.555 49.8506 144.555 50.8967C144.624 52.7797 144.555 54.6627 144.624 56.5457C144.624 57.6615 144.003 57.7313 143.175 57.7313C142.278 57.7313 141.933 57.4523 142.002 56.5457C142.002 53.4074 141.933 50.1993 141.933 47.061ZM144.624 43.0161C144.624 44.2017 144.624 45.3175 144.624 46.5031C144.624 46.9216 144.693 47.34 145.176 47.34C147.039 47.4097 148.833 47.4795 150.489 46.5031C152.215 45.5268 152.353 43.7833 152.215 42.0398C152.077 40.5752 151.179 39.6686 149.799 39.1804C148.281 38.6225 146.763 38.8317 145.245 38.762C144.693 38.762 144.555 39.1107 144.555 39.5989C144.624 40.7844 144.624 41.9003 144.624 43.0161Z" fill="white"></path>
                                <path d="M73.8926 37.0185C75.0657 36.9487 76.1008 37.0882 77.1359 37.3672C78.033 37.6461 78.654 39.3896 78.102 40.1568C77.757 40.5752 77.4809 40.2265 77.1359 40.087C75.4107 39.3199 73.6856 39.0409 71.8914 39.4594C70.5803 39.7383 69.5452 40.366 69.2002 41.8305C68.9242 43.2951 69.5452 44.4109 70.7183 45.1083C72.0294 45.8754 73.4096 46.6426 74.7897 47.34C75.7558 47.8282 76.5838 48.5256 77.3429 49.2927C80.0342 52.0823 79.2061 56.4062 75.6868 57.8707C72.9265 58.9865 70.0283 58.7773 67.268 57.8707C66.647 57.6615 66.1639 55.4995 66.647 55.0114C66.992 54.6627 67.199 55.0811 67.475 55.1508C69.4762 56.0575 71.5464 56.6154 73.7546 56.1272C74.9967 55.8482 75.8938 55.2903 76.1698 53.9653C76.4458 52.6402 76.1698 51.4546 74.9967 50.6177C73.4096 49.3624 71.4774 48.665 69.7522 47.6189C67.9581 46.5031 66.5089 45.1083 66.5089 42.7371C66.5089 40.7147 67.337 39.1804 69.0622 38.1343C70.5803 37.2277 72.2365 36.879 73.8926 37.0185Z" fill="white"></path>
                                <path d="M166.637 55.7088C164.705 58.0799 162.428 58.6379 159.806 57.6615C158.149 57.0338 157.183 55.639 157.114 53.7561C157.114 51.5244 158.011 49.9901 159.736 49.3624C161.531 48.665 163.463 48.5953 165.326 48.2466C166.775 48.0374 166.913 47.8282 166.499 46.4334C166.154 45.1083 165.326 44.4806 164.015 44.4109C162.359 44.3412 160.772 44.5504 159.391 45.5267C158.701 46.0149 158.494 45.736 158.425 44.9688C158.356 43.9925 158.632 43.3648 159.598 42.9464C161.531 42.249 163.532 41.8305 165.602 42.3187C167.534 42.8069 168.776 44.2714 169.052 46.2939C169.328 48.3163 169.259 50.3388 169.259 52.3613C169.259 53.7561 169.259 55.0811 169.259 56.4759C169.259 57.3825 168.983 57.7312 168.086 57.6615C167.327 57.5918 166.499 57.801 166.568 56.5456C166.775 56.4062 166.706 56.197 166.637 55.7088ZM166.775 51.5244C166.637 51.0362 167.12 49.9901 166.085 50.1296C164.567 50.3388 162.98 50.3388 161.531 50.8967C160.289 51.3849 159.667 52.3613 159.806 53.5468C159.944 54.7324 160.841 55.639 162.083 55.7785C164.705 56.1969 166.775 54.314 166.775 51.5244Z" fill="white"></path>
                                <path d="M217.908 50.7573C216.459 50.7573 214.941 50.7573 213.492 50.7573C212.733 50.7573 212.526 51.106 212.595 51.8034C212.802 54.035 214.665 55.7785 216.873 55.918C218.529 55.9878 219.978 55.6391 221.358 54.8022C222.049 54.3837 222.187 54.6627 222.256 55.2904C222.325 56.3365 221.98 56.9641 221.013 57.3128C219.288 57.9405 217.494 58.3589 215.631 58.08C212.388 57.522 210.594 55.7088 209.972 52.3613C209.42 49.223 209.834 46.2939 212.319 43.9228C215.907 40.5752 221.635 42.1095 222.877 46.8518C223.084 47.7585 223.222 48.5953 223.291 49.5019C223.291 50.4086 223.015 50.827 222.049 50.7573C220.668 50.6875 219.288 50.7573 217.908 50.7573ZM217.149 48.6651C218.046 48.6651 218.943 48.6651 219.84 48.6651C220.323 48.6651 220.599 48.5256 220.599 48.0374C220.668 46.6426 219.426 44.8294 218.046 44.5504C215.562 43.9925 213.423 45.2478 212.664 47.6887C212.457 48.3164 212.457 48.5953 213.285 48.5953C214.596 48.5953 215.838 48.7348 217.149 48.6651Z" fill="white"></path>
                                <path d="M117.021 51.3849C115.71 51.3849 114.468 51.4546 113.157 51.3849C112.191 51.3152 111.984 51.8033 112.122 52.6402C112.743 55.7088 115.227 57.1733 118.539 56.197C119.298 55.9877 119.919 55.639 120.54 55.2206C121.023 54.8719 121.23 55.0114 121.3 55.5693C121.438 56.6154 121.161 57.3825 120.126 57.801C115.848 59.405 110.19 58.9168 109.499 51.8731C109.223 48.944 109.844 46.2241 112.191 44.2017C114.192 42.5279 116.469 42.3187 118.746 43.2951C121.092 44.2714 121.99 46.2939 122.128 48.665C122.335 51.8731 122.335 51.3152 119.643 51.3152C118.815 51.3849 117.918 51.3849 117.021 51.3849ZM115.848 49.3624C116.883 49.3624 117.918 49.3624 118.953 49.3624C119.367 49.3624 119.712 49.2927 119.781 48.7348C119.85 47.1308 118.608 45.3873 117.021 45.0386C114.951 44.5504 112.812 46.0847 112.26 48.4558C112.053 49.223 112.329 49.4322 113.019 49.4322C113.985 49.3624 114.882 49.3624 115.848 49.3624Z" fill="white"></path>
                                <path d="M196.654 44.5504C198.035 42.9464 199.553 42.1095 201.485 42.1095C204.383 42.1792 206.522 44.0622 206.66 46.9913C206.798 50.2691 206.66 53.4771 206.729 56.7549C206.729 57.7312 206.108 57.6615 205.487 57.6615C204.866 57.6615 204.245 57.6615 204.245 56.7549C204.245 54.314 204.245 51.8034 204.245 49.3625C204.245 48.3861 204.107 47.4795 203.831 46.5729C203.141 44.3412 200.105 43.5043 198.38 45.0386C197.138 46.0847 196.516 47.4097 196.585 49.0138C196.654 51.3849 196.585 53.8258 196.585 56.197C196.585 57.5918 196.516 57.6615 195.205 57.6615C193.963 57.6615 193.894 57.5918 193.894 56.1272C193.894 52.0126 193.894 47.9677 193.894 43.853C193.894 43.0161 193.825 42.249 195.067 42.3187C196.447 42.3885 196.516 42.3187 196.585 43.7135C196.585 43.9925 196.654 44.132 196.654 44.5504Z" fill="white"></path>
                                <path d="M184.648 49.8506C184.648 48.5256 184.579 47.2702 184.648 45.9452C184.717 44.8991 184.303 44.5504 183.337 44.6899C182.715 44.7596 182.025 44.7596 182.025 43.7832C182.025 42.8069 182.232 42.3187 183.268 42.4582C184.372 42.5977 184.786 42.1095 184.648 41.0634C184.648 40.7844 184.648 40.5752 184.648 40.2962C184.648 39.1107 185.683 38.204 186.856 38.2738C187.339 38.3435 187.27 38.6922 187.27 38.9712C187.27 39.8081 187.27 40.6449 187.27 41.4818C187.27 42.1792 187.477 42.4582 188.236 42.4582C188.926 42.4582 189.685 42.4582 190.375 42.4582C191.203 42.4582 191.134 43.0161 191.203 43.574C191.203 44.1319 191.203 44.6899 190.375 44.6899C189.685 44.6899 188.926 44.6899 188.236 44.6899C187.615 44.6899 187.339 44.8991 187.339 45.5965C187.339 48.3861 187.339 51.1757 187.339 53.9653C187.339 55.4298 188.512 56.197 190.03 55.918C190.375 55.8483 190.996 55.2206 191.134 56.0575C191.272 56.6851 191.41 57.4523 190.444 57.8707C187.615 58.9866 184.786 57.1733 184.648 54.1048C184.579 52.6402 184.648 51.2454 184.648 49.8506Z" fill="white"></path>
                                <path d="M101.356 55.3599C102.737 51.5242 104.048 47.828 105.359 44.1318C105.635 43.3647 107.153 42.8765 107.843 43.3647C108.326 43.7134 107.912 44.1318 107.774 44.5502C106.394 48.0372 105.014 51.5242 103.634 55.0112C103.358 55.7086 103.082 56.3363 102.875 57.0337C102.599 57.9403 102.046 58.1495 101.218 58.1495C100.321 58.1495 99.9073 57.8008 99.5623 56.964C98.0441 52.919 96.526 48.8741 95.0769 44.7595C94.9388 44.341 94.2488 43.7134 95.1459 43.2949C96.1119 42.8765 97.2161 43.2949 97.4921 44.0621C97.9751 45.4569 98.4582 46.8517 98.9412 48.2465C99.7003 50.6176 100.528 52.919 101.356 55.3599Z" fill="white"></path>
                                <path d="M176.091 44.8294C176.988 43.4346 178.023 42.528 179.61 42.249C180.231 42.1793 180.921 42.0398 181.404 42.5977C181.887 43.1556 181.404 43.853 181.404 44.4807C181.404 44.7596 181.197 44.7596 180.921 44.7596C177.609 44.6202 176.091 46.1544 176.022 49.502C176.022 51.8034 175.953 54.0351 176.022 56.3365C176.022 57.3826 175.608 57.7313 174.642 57.6615C173.676 57.6615 173.262 57.4523 173.331 56.4062C173.4 52.1521 173.4 47.8979 173.331 43.5741C173.331 42.4582 173.814 42.3187 174.711 42.3187C175.677 42.3187 176.16 42.528 176.022 43.5741C176.091 44.0622 176.091 44.4109 176.091 44.8294Z" fill="white"></path>
                                <path d="M89.833 47.2004C89.833 43.9924 89.833 40.8541 89.833 37.646C89.833 36.7394 90.04 36.2512 91.0751 36.2512C92.0412 36.2512 92.2482 36.6697 92.2482 37.5763C92.2482 43.9924 92.2482 50.4084 92.2482 56.8245C92.2482 57.7311 92.0412 58.1496 91.0751 58.1496C90.04 58.1496 89.833 57.7311 89.833 56.7548C89.833 53.6165 89.833 50.4084 89.833 47.2004Z" fill="white"></path>
                                <path d="M128.2 45.5267C129.235 43.9227 130.547 42.9463 132.41 43.0858C133.307 43.1556 133.514 43.6437 133.376 44.9688C133.238 45.8754 132.686 45.457 132.272 45.3872C130.823 45.178 129.58 45.8754 128.89 47.2702C128.407 48.2466 128.2 49.2229 128.2 50.3388C128.2 52.5705 128.2 54.7324 128.2 56.9641C128.2 57.8707 127.924 58.1497 127.027 58.1497C126.13 58.1497 125.785 57.8707 125.785 56.8943C125.854 52.7797 125.854 48.665 125.785 44.5504C125.785 43.6437 126.061 43.295 127.027 43.295C127.993 43.295 128.338 43.6437 128.269 44.5504C128.2 44.8293 128.2 45.178 128.2 45.5267Z" fill="white"></path>
                                <path d="M85.1405 50.7573C85.1405 52.8495 85.1405 54.8719 85.1405 56.9641C85.1405 57.8707 84.7954 58.1497 83.8984 58.1497C83.0703 58.1497 82.6562 57.9405 82.6562 56.9641C82.6562 52.7797 82.7253 48.5953 82.6562 44.3412C82.6562 43.3648 83.1393 43.2253 83.8984 43.2253C84.7264 43.2253 85.0715 43.4346 85.0715 44.3412C85.1405 46.5031 85.1405 48.6651 85.1405 50.7573Z" fill="white"></path>
                                <path d="M83.967 39.6686C83.1389 39.6686 82.3799 38.9712 82.3799 38.1343C82.3799 37.3672 83.0699 36.6 83.829 36.6C84.6571 36.5303 85.4852 37.2277 85.4852 38.0646C85.5542 38.8317 84.7951 39.5988 83.967 39.6686Z" fill="white"></path>
                                <path d="M224.602 14.9109V11.0054H219.841V5.00781L219.703 5.07755L215.217 6.47235H215.148V11.0752H208.041V8.49481C208.041 7.30923 208.317 6.40261 208.8 5.77495C209.283 5.14729 210.042 4.86833 211.008 4.86833C211.698 4.86833 212.388 5.00781 213.078 5.35651L213.285 5.42625V1.38133H213.216C212.526 1.10237 211.629 0.962891 210.525 0.962891C209.145 0.962891 207.833 1.24185 206.798 1.86951C205.694 2.49717 204.797 3.33405 204.245 4.44989C203.624 5.56573 203.348 6.82105 203.348 8.21585V11.0054H200.036V14.9109H203.348V31.2998H208.11V14.9109H215.217V25.3021C215.217 29.5563 217.218 31.788 221.152 31.788C221.773 31.788 222.463 31.7182 223.153 31.5787C223.843 31.4393 224.326 31.2998 224.602 31.0906L224.671 31.0208V27.1154L224.464 27.2549C224.188 27.4641 223.912 27.6036 223.498 27.6733C223.084 27.8128 222.808 27.8128 222.532 27.8128C221.635 27.8128 220.945 27.5338 220.531 27.0456C220.117 26.5575 219.91 25.6508 219.91 24.4653V14.9109H224.602ZM189.271 27.8128C187.546 27.8128 186.166 27.2549 185.199 26.0693C184.233 24.9534 183.75 23.2797 183.75 21.1875C183.75 19.0255 184.233 17.3518 185.199 16.1662C186.166 14.9806 187.546 14.4227 189.202 14.4227C190.858 14.4227 192.169 14.9806 193.135 16.0965C194.101 17.2123 194.584 18.8861 194.584 21.048C194.584 23.2797 194.101 24.9534 193.273 26.0693C192.376 27.2549 190.996 27.8128 189.271 27.8128ZM189.478 10.5173C186.166 10.5173 183.543 11.4936 181.68 13.4463C179.817 15.3991 178.851 18.0492 178.851 21.3967C178.851 24.535 179.748 27.1154 181.611 28.9984C183.405 30.8813 185.89 31.788 188.995 31.788C192.169 31.788 194.791 30.8116 196.654 28.8589C198.518 26.9062 199.484 24.256 199.484 20.9783C199.484 17.7702 198.587 15.1898 196.861 13.3766C195.067 11.4936 192.583 10.5173 189.478 10.5173ZM171.191 10.5173C168.914 10.5173 167.051 11.0752 165.671 12.2608C164.222 13.4463 163.532 14.9109 163.532 16.7241C163.532 17.7005 163.67 18.5374 164.015 19.2348C164.291 19.9322 164.774 20.5598 165.464 21.1177C166.085 21.6757 167.051 22.1638 168.362 22.7915C169.466 23.2099 170.225 23.6284 170.777 23.9073C171.26 24.1863 171.605 24.4653 171.812 24.814C172.019 25.0929 172.088 25.5114 172.088 25.9298C172.088 27.3246 171.053 27.9523 168.983 27.9523C168.224 27.9523 167.327 27.8128 166.361 27.4641C165.395 27.1154 164.498 26.6969 163.67 26.0693L163.463 25.9298V30.6024H163.532C164.222 30.9511 165.05 31.1603 166.085 31.3695C167.12 31.5787 168.017 31.7182 168.776 31.7182C171.191 31.7182 173.192 31.1603 174.642 29.9747C176.091 28.7891 176.781 27.2549 176.781 25.3719C176.781 23.9771 176.367 22.8612 175.608 21.8849C174.849 20.9783 173.468 20.0716 171.605 19.3045C170.087 18.6768 169.19 18.1887 168.776 17.84C168.431 17.4913 168.224 16.9333 168.224 16.3057C168.224 15.7478 168.431 15.2596 168.914 14.8411C169.397 14.4227 170.087 14.2832 170.915 14.2832C171.743 14.2832 172.502 14.4227 173.33 14.6319C174.158 14.9109 174.849 15.1898 175.47 15.6083L175.677 15.7478V11.4239H175.608C175.056 11.2147 174.365 11.0054 173.468 10.7962C172.64 10.6567 171.881 10.5173 171.191 10.5173ZM151.041 27.8128C149.316 27.8128 147.936 27.2549 146.97 26.0693C146.004 24.9534 145.521 23.2797 145.521 21.1875C145.521 19.0255 146.004 17.3518 146.97 16.1662C147.936 14.9806 149.316 14.4227 150.972 14.4227C152.629 14.4227 153.94 14.9806 154.906 16.0965C155.872 17.2123 156.355 18.8861 156.355 21.048C156.355 23.2797 155.872 24.9534 155.044 26.0693C154.147 27.2549 152.836 27.8128 151.041 27.8128ZM151.248 10.5173C147.936 10.5173 145.314 11.4936 143.451 13.4463C141.588 15.3991 140.621 18.0492 140.621 21.3967C140.621 24.535 141.519 27.1154 143.382 28.9984C145.176 30.8813 147.66 31.788 150.765 31.788C153.94 31.788 156.562 30.8116 158.425 28.8589C160.288 26.9062 161.254 24.256 161.254 20.9783C161.254 17.7702 160.357 15.1898 158.632 13.3766C156.838 11.4936 154.423 10.5173 151.248 10.5173ZM133.445 14.5622V11.0752H128.752V31.2998H133.445V20.9085C133.445 19.165 133.859 17.7005 134.618 16.5846C135.377 15.5385 136.412 14.9806 137.654 14.9806C138.068 14.9806 138.551 15.0504 139.103 15.1898C139.586 15.3293 140 15.4688 140.207 15.6083L140.414 15.7478V10.9357H140.345C139.931 10.7265 139.31 10.6567 138.482 10.6567C137.309 10.6567 136.205 11.0752 135.308 11.7726C134.48 12.47 133.928 13.3766 133.445 14.5622ZM120.265 10.5173C118.125 10.5173 116.193 11.0054 114.537 11.9121C112.881 12.8187 111.639 14.1437 110.742 15.8175C109.914 17.4913 109.431 19.444 109.431 21.6059C109.431 23.4889 109.845 25.3021 110.673 26.8364C111.501 28.3707 112.674 29.626 114.192 30.4629C115.71 31.2998 117.435 31.7182 119.368 31.7182C121.576 31.7182 123.508 31.2998 125.026 30.3932L125.095 30.3234V25.9298L124.888 26.0693C124.198 26.5575 123.439 26.9759 122.611 27.2549C121.783 27.5338 121.024 27.6733 120.334 27.6733C118.47 27.6733 117.021 27.1154 115.917 25.9298C114.813 24.7442 114.261 23.1402 114.261 21.1177C114.261 19.0953 114.813 17.4215 115.986 16.1662C117.09 14.9109 118.608 14.353 120.403 14.353C121.921 14.353 123.439 14.9109 124.888 15.957L125.095 16.0965V11.4936L125.026 11.4239C124.474 11.1449 123.784 10.866 122.818 10.6567C121.99 10.6567 121.093 10.5173 120.265 10.5173ZM106.187 11.0054H101.495V31.23H106.187V11.0054ZM103.91 2.42743C103.151 2.42743 102.461 2.70639 101.909 3.19457C101.357 3.75249 101.081 4.38015 101.081 5.14729C101.081 5.91443 101.357 6.61183 101.909 7.10001C102.461 7.58819 103.151 7.86715 103.91 7.86715C104.669 7.86715 105.359 7.58819 105.911 7.10001C106.463 6.61183 106.739 5.91443 106.739 5.14729C106.739 4.38015 106.463 3.75249 105.911 3.19457C105.428 2.70639 104.738 2.42743 103.91 2.42743ZM92.1101 9.5409V31.2998H96.9405V3.05509H90.3159L81.8282 24.0468L73.6164 3.05509H66.7158V31.2998H71.2702V9.5409H71.4082L80.034 31.2998H83.4153L91.9721 9.5409H92.1101Z" fill="white"></path>
                                <path d="M28.3482 29.0681H0.676758V1.10242H28.3482V29.0681Z" fill="white"></path>
                                <path d="M58.8486 29.0681H31.2461V1.10242H58.9176L58.8486 29.0681Z" fill="white"></path>
                                <path d="M28.3482 59.9629H0.676758V31.9972H28.3482V59.9629Z" fill="white"></path>
                                <path d="M58.8486 59.9629H31.2461V31.9972H58.9176L58.8486 59.9629Z" fill="white"></path>
                            </g>
                            <defs>
                                <clipPath id="">
                                    <rect width="234" height="59" fill="white" transform="translate(0.676758 0.962891)"></rect>
                                </clipPath>
                            </defs>
                        </svg>