<svg width="284" height="73" viewBox="0 0 284 73" fill="none" xmlns="http://www.w3.org/2000/svg">
                            <g clip-path="url(#clip0_1852_1256)">
                                <path d="M36.1989 10.0328C35.2698 9.65931 34.5108 9.20851 34.0004 8.70618C36.4606 8.02353 39.0386 7.66289 41.7081 7.66289C44.3777 7.66289 46.9687 8.02353 49.4158 8.70618C48.827 9.27291 47.9633 9.77523 46.8771 10.1616C45.4377 10.6768 43.6449 10.986 41.7081 10.986C39.6144 10.986 37.6907 10.6253 36.1989 10.0328ZM55.671 15.3781C56.9796 14.7341 58.0265 13.9999 58.7331 13.2142C56.286 11.4239 53.5641 10.02 50.6721 9.07971C50.3711 9.46611 50.0047 9.80099 49.599 10.0844C51.8629 11.3724 53.9044 13.1756 55.671 15.391V15.3781ZM27.7322 15.3781C29.4988 13.1498 31.5533 11.3466 33.8041 10.0715C33.4115 9.78811 33.0451 9.45323 32.7311 9.06683C29.839 10.02 27.104 11.411 24.6569 13.2014C25.3505 13.987 26.4105 14.7212 27.7191 15.3652L27.7322 15.3781ZM48.4213 10.7799C48.068 10.9602 47.6885 11.1148 47.2828 11.2565C46.9426 11.3724 46.5892 11.4883 46.2097 11.5913C47.5053 12.9566 48.6568 14.9144 49.6383 17.3101C50.6459 17.1169 51.6667 16.8593 52.6481 16.5502C53.3024 16.357 53.9436 16.1251 54.5718 15.8675C52.779 13.6908 50.7114 11.952 48.4344 10.7799H48.4213ZM47.2828 59.9048C47.6754 60.0464 48.0549 60.201 48.4213 60.3813C50.6983 59.2221 52.7659 57.4704 54.5587 55.2808C53.9567 55.0361 53.3155 54.8042 52.635 54.5981C51.6928 54.3148 50.6852 54.0572 49.6252 53.8382C48.6568 56.2339 47.4922 58.1917 46.1967 59.557C46.5762 59.6729 46.9295 59.776 47.2697 59.9048H47.2828ZM35.754 11.1148C35.4922 11.0117 35.2436 10.8958 34.9819 10.7799C32.718 11.952 30.6373 13.6908 28.8445 15.8804C29.3679 16.0994 29.9176 16.2926 30.4933 16.4729C31.501 16.7949 32.6002 17.0783 33.778 17.3101C34.7463 14.9144 35.911 12.9566 37.2065 11.5913C36.7092 11.4625 36.2251 11.308 35.754 11.1019V11.1148ZM34.9819 17.5291C36.8794 17.8382 38.947 18.0185 41.1062 18.0443V12.1452C40.2687 12.1194 39.4181 12.0293 38.6067 11.8876C37.2458 13.0983 36.0157 15.0303 34.9819 17.5162V17.5291ZM44.8095 11.9005C43.972 12.0421 43.1476 12.1194 42.3101 12.1581V18.0572C44.3646 18.0443 46.4191 17.864 48.4344 17.542C47.4006 15.0561 46.1705 13.1241 44.8095 11.9133V11.9005ZM82.6807 0.462891V72.4629H0.43457V0.462891H82.6807ZM16.1771 20.6976H17.5904C19.2524 18.1344 21.3331 15.8547 23.7409 13.9355C24.513 14.8243 25.6253 15.6228 27.0255 16.3312C26.031 17.7094 25.1673 19.1649 24.4476 20.6976H25.7693L25.8739 20.4786C26.5283 19.2035 27.2742 17.9799 28.1117 16.8336C28.7791 17.1169 29.4595 17.3616 30.14 17.5935C31.2 17.9284 32.2731 18.2117 33.3592 18.4307C33.1367 19.0489 32.9274 19.6929 32.7311 20.3627C32.6918 20.4786 32.6656 20.5946 32.6264 20.7105H33.8696C34.0789 20.0278 34.3014 19.3452 34.5369 18.6625C36.6962 19.0232 38.8946 19.2164 41.0931 19.2421V20.7105H42.297V19.2421C44.4955 19.2164 46.6939 19.0232 48.8531 18.6625C49.1018 19.3323 49.3111 20.0149 49.5205 20.6847L50.7637 20.6976L50.659 20.3498C50.4627 19.6929 50.2534 19.0489 50.0309 18.4178C51.0647 18.1988 52.0462 17.9541 52.9753 17.6708C53.7997 17.4132 54.5718 17.1298 55.2915 16.8336C56.1814 18.0572 56.9665 19.3452 57.6339 20.6847H58.9556C58.2359 19.1649 57.3722 17.6965 56.3907 16.3183C57.7779 15.6099 58.8902 14.7985 59.6753 13.9226C62.0701 15.8418 64.1508 18.1216 65.8258 20.6847H67.2391C62.0178 12.1709 52.5172 6.45216 41.7212 6.45216C30.9252 6.45216 21.4116 12.1709 16.1902 20.6847L16.1771 20.6976ZM41.0277 42.581C40.9884 43.3022 40.4257 44.0879 38.4889 44.1008C37.285 44.1008 35.2698 43.7144 33.6994 42.7484C32.0768 41.7438 30.9252 40.2368 29.7474 40.2368H26.8685C26.0179 40.2368 25.3767 41.4475 25.3767 42.2976V47.733C25.3767 48.699 26.0441 49.0081 26.7507 48.9953L29.5642 48.9566C31.4225 48.9309 30.5849 47.4883 31.3963 47.192C33.5162 46.4064 33.5031 49.4203 39.1433 49.4976C45.5162 49.5878 49.2719 45.9298 49.1803 41.7437C49.0625 36.4758 45.0451 34.4021 38.502 32.5988C35.9764 31.9033 33.4115 31.7488 33.5162 29.7781C33.5555 29.0568 34.1182 28.2711 36.0549 28.2582C37.2589 28.2582 39.2741 28.6446 40.8444 29.6107C42.4671 30.6153 43.6187 32.1094 44.7965 32.1094H47.6754C48.526 32.1094 49.1672 30.8987 49.1672 30.0486V24.6132C49.1672 23.6471 48.4998 23.338 47.7932 23.3509L44.9797 23.3895C43.1214 23.4024 43.9589 24.8579 43.1476 25.1541C41.0276 25.9398 41.0407 22.9259 35.3875 22.8486C29.0146 22.7584 25.2589 26.4164 25.3505 30.6024C25.4683 35.8704 29.5119 37.7895 34.5239 39.3996C37.0233 40.211 41.1193 40.6103 41.0146 42.5681L41.0277 42.581ZM8.32549 48.8536H23.2175C23.7933 48.8536 24.2513 48.4028 24.2513 47.8361V43.1477C24.2513 42.581 23.7802 42.1173 23.2175 42.1173H20.1292V29.3659H23.2175C23.7933 29.3659 24.2513 28.9022 24.2513 28.3484V23.6471C24.2513 23.0804 23.7802 22.6296 23.2175 22.6296H8.32549C7.7497 22.6296 7.29169 23.0933 7.29169 23.6471V28.3355C7.29169 28.9022 7.76279 29.3531 8.32549 29.3531H11.6101V42.1044H8.32549C7.7497 42.1044 7.29169 42.5681 7.29169 43.1348V47.8232C7.29169 48.4028 7.7497 48.8536 8.32549 48.8536ZM67.226 50.4636H65.8127C64.1508 53.0268 62.0701 55.3065 59.6623 57.2257C58.8902 56.3369 57.7779 55.5384 56.3776 54.83C57.3722 53.4518 58.2359 51.9963 58.9425 50.4636H57.6208C56.9534 51.816 56.1683 53.104 55.2784 54.3276C54.5194 54.0056 53.7473 53.7223 52.9622 53.4904C51.9938 53.1942 51.0123 52.9366 50.0178 52.7434C50.2403 52.1251 50.4496 51.4811 50.6459 50.8114L50.7506 50.4636H49.4944C49.2981 51.1591 49.0625 51.8418 48.827 52.5115C46.6678 52.1509 44.4693 51.9577 42.2708 51.9319V50.4636H41.0669V51.9319C38.8684 51.9448 36.67 52.1509 34.5108 52.5115C34.2621 51.8289 34.0397 51.1591 33.8434 50.4636H32.6002C32.6264 50.5795 32.6656 50.6954 32.7049 50.8114C32.9012 51.4683 33.1106 52.1251 33.333 52.7434C32.1945 52.9752 31.1084 53.2586 30.1138 53.5806C29.3941 53.8124 28.7136 54.07 28.0855 54.3405C27.248 53.1813 26.489 51.9706 25.8478 50.6954L25.7431 50.4765H24.4214C25.1542 51.9963 26.0048 53.4647 26.9994 54.8429C25.6122 55.5513 24.4999 56.3627 23.7147 57.2386C21.32 55.3194 19.2393 53.0396 17.5643 50.4765H16.151C21.3723 58.9903 30.8728 64.709 41.6689 64.709C52.478 64.709 61.9785 58.9903 67.1999 50.4765L67.226 50.4636ZM77.6033 36.025C77.6033 27.2536 71.4136 22.7584 63.8236 22.7584C56.2337 22.7584 50.044 27.2536 50.044 36.025C50.044 44.7963 56.2337 49.2915 63.8236 49.2915C71.4136 49.2915 77.6033 44.7963 77.6033 36.025ZM34.9819 60.3813C35.2305 60.2654 35.4791 60.1495 35.754 60.0464C36.2251 59.8661 36.7223 59.6987 37.2065 59.5699C35.911 58.2046 34.7594 56.2597 33.778 53.8511C32.6133 54.0829 31.5141 54.3663 30.4933 54.6883C29.9176 54.8686 29.3548 55.0747 28.8445 55.2808C30.6373 57.4704 32.7049 59.2092 34.9819 60.3684V60.3813ZM41.7081 60.201C39.6144 60.201 37.7038 60.5488 36.1989 61.1541C35.2698 61.5276 34.5108 61.9785 34.0004 62.4808C36.4606 63.1634 39.0386 63.5241 41.7081 63.5241C44.3777 63.5241 46.9687 63.1634 49.4158 62.4808C48.827 61.9141 47.9633 61.4117 46.8771 61.0253C45.4246 60.5101 43.6449 60.201 41.7081 60.201ZM55.671 55.796C53.9044 58.0114 51.8499 59.8275 49.599 61.1026C49.9916 61.386 50.358 61.7209 50.6721 62.1073C53.5641 61.1541 56.286 59.7631 58.7331 57.9727C58.0396 57.187 56.9796 56.4529 55.671 55.8089V55.796ZM63.8236 28.7734C60.7484 28.7734 59.8716 31.2336 59.8716 36.025C59.8716 40.8164 60.7484 43.2765 63.8236 43.2765C66.8989 43.2765 67.7756 40.8164 67.7756 36.025C67.7756 31.2336 66.8858 28.7734 63.8236 28.7734ZM27.7322 55.796C26.4236 56.44 25.3767 57.1742 24.67 57.9598C27.1171 59.7502 29.839 61.1541 32.7442 62.0944C33.0451 61.708 33.4115 61.3731 33.8172 61.0897C31.5533 59.8146 29.4988 58.0114 27.7453 55.7831L27.7322 55.796ZM48.4213 53.6321C46.5107 53.323 44.4562 53.1427 42.297 53.1169V59.016C43.1345 59.0418 43.9851 59.1319 44.7965 59.2736C46.1574 58.0758 47.3875 56.1309 48.4213 53.645V53.6321ZM38.5936 59.2736C39.3919 59.1319 40.2294 59.0547 41.0931 59.016V53.1169C39.0386 53.1427 36.9971 53.323 34.9688 53.6321C36.0026 56.118 37.2327 58.05 38.5936 59.2607V59.2736Z" fill="white"></path>
                                <path d="M96.709 42.4135C98.1615 43.5727 99.6141 44.1137 101.734 44.1137C105.346 44.1137 107.858 41.4089 107.858 37.8926V37.5835C106.563 39.2837 104.09 40.5588 101.459 40.5588C96.7482 40.5588 92.3513 37.6608 92.3513 32.1738C92.3513 26.6869 96.709 23.132 102.794 23.132C111.078 23.132 114.689 29.0053 114.689 36.4243C114.689 44.616 109.664 49.7552 101.734 49.7552C98.6719 49.7552 95.7668 48.8278 93.8039 47.2822L96.709 42.4135ZM103.108 28.7735C100.596 28.7735 99.2215 30.3577 99.2215 31.8647C99.2215 34.1831 101.341 35.1105 103.461 35.1105C105.11 35.1105 106.72 34.4922 107.858 33.3717C107.701 31.2464 106.406 28.7735 103.108 28.7735Z" fill="white"></path>
                                <path d="M127.998 23.1705C135.654 23.1705 139.226 29.6621 139.226 36.4628C139.226 43.2636 135.654 49.7938 127.998 49.7938C120.343 49.7938 116.77 43.2636 116.77 36.4628C116.77 29.6621 120.343 23.1705 127.998 23.1705ZM127.998 29.0439C124.857 29.0439 123.601 31.9033 123.601 36.4628C123.601 41.0224 124.857 43.9204 127.998 43.9204C131.139 43.9204 132.395 41.0224 132.395 36.4628C132.395 31.9033 131.139 29.0439 127.998 29.0439Z" fill="white"></path>
                                <path d="M152.495 23.1707C160.15 23.1707 163.723 29.6622 163.723 36.463C163.723 43.2637 160.15 49.7939 152.495 49.7939C144.84 49.7939 141.267 43.2637 141.267 36.463C141.267 29.6622 144.84 23.1707 152.495 23.1707ZM152.495 29.044C149.354 29.044 148.098 31.9034 148.098 36.463C148.098 41.0225 149.354 43.9206 152.495 43.9206C155.636 43.9206 156.892 41.0225 156.892 36.463C156.892 31.9034 155.636 29.044 152.495 29.044Z" fill="white"></path>
                                <path d="M173.184 49.3302V32.0579L168.787 36.4243L164.94 32.4443L174.087 23.557H179.937V49.3302H173.184Z" fill="white"></path>
                                <path d="M188.508 30.3964C190.511 30.3964 192.199 32.0579 192.199 34.0286C192.199 35.9992 190.511 37.6608 188.508 37.6608C186.506 37.6608 184.818 35.9992 184.818 34.0286C184.818 32.0579 186.506 30.3964 188.508 30.3964ZM188.508 42.5295C190.511 42.5295 192.199 44.191 192.199 46.1617C192.199 48.1323 190.511 49.7939 188.508 49.7939C186.506 49.7939 184.818 48.1323 184.818 46.1617C184.818 44.191 186.506 42.5295 188.508 42.5295Z" fill="white"></path>
                                <path d="M196.098 49.3302V44.1524C207.444 36.0766 209.564 34.2991 209.564 31.7488C209.564 29.9714 207.876 29.044 205.834 29.044C203.047 29.044 200.848 30.1259 198.964 31.8648L195.234 27.4597C198.022 24.4458 202.183 23.1707 205.834 23.1707C211.998 23.1707 216.434 26.571 216.434 31.7488C216.434 35.6902 213.568 39.0519 206.541 43.5342H216.63V49.3302H196.098Z" fill="white"></path>
                                <path d="M230.449 23.1705C238.105 23.1705 241.677 29.6621 241.677 36.4628C241.677 43.2636 238.105 49.7938 230.449 49.7938C222.794 49.7938 219.221 43.2636 219.221 36.4628C219.221 29.6621 222.794 23.1705 230.449 23.1705ZM230.449 29.0439C227.309 29.0439 226.052 31.9033 226.052 36.4628C226.052 41.0224 227.309 43.9204 230.449 43.9204C233.59 43.9204 234.846 41.0224 234.846 36.4628C234.846 31.9033 233.59 29.0439 230.449 29.0439Z" fill="white"></path>
                                <path d="M251.139 49.3302V32.0579L246.742 36.4243L242.894 32.4443L252.041 23.557H257.891V49.3302H251.139Z" fill="white"></path>
                                <path d="M265.428 41.6021C267.234 43.2636 269.786 44.1524 272.298 44.1524C275.164 44.1524 276.578 42.6454 276.578 40.9838C276.578 39.1677 275.203 37.854 272.495 37.854C270.414 37.854 268.765 38.4722 267.313 39.786L262.641 38.6654V23.557H281.642V29.1599H269.158V34.4536C270.65 33.2171 272.691 32.367 275.007 32.367C279.483 32.367 283.448 35.5355 283.448 40.7134C283.448 46.2776 279.169 49.7939 272.377 49.7939C267.744 49.7939 264.25 48.4028 261.816 46.0457L265.428 41.6021Z" fill="white"></path>
                            </g>
                            <defs>
                                <clipPath id="">
                                    <rect width="283" height="72" fill="white" transform="translate(0.43457 0.462891)"></rect>
                                </clipPath>
                            </defs>
                        </svg>