<svg width="202" height="73" viewBox="0 0 202 73" fill="none" xmlns="http://www.w3.org/2000/svg">
                            <g clip-path="url(#clip0_1852_1248)">
                                <path d="M36.5962 10.0328C35.6675 9.65931 34.9089 9.20851 34.3988 8.70618C36.8578 8.02353 39.4346 7.66289 42.1029 7.66289C44.7712 7.66289 47.361 8.02353 49.807 8.70618C49.2184 9.27291 48.3551 9.77523 47.2695 10.1616C45.8307 10.6768 44.0387 10.986 42.1029 10.986C40.0101 10.986 38.0873 10.6253 36.5962 10.0328ZM56.0592 15.3781C57.3672 14.7341 58.4136 13.9999 59.1199 13.2142C56.674 11.4239 53.9533 10.02 51.0627 9.07971C50.7618 9.46611 50.3956 9.80099 49.9901 10.0844C52.2529 11.3724 54.2934 13.1756 56.0592 15.391V15.3781ZM28.1335 15.3781C29.8993 13.1498 31.9528 11.3466 34.2026 10.0715C33.8102 9.78811 33.4439 9.45323 33.13 9.06683C30.2393 10.02 27.5056 11.411 25.0597 13.2014C25.7529 13.987 26.8124 14.7212 28.1204 15.3652L28.1335 15.3781ZM48.8129 10.7799C48.4597 10.9602 48.0804 11.1148 47.6749 11.2565C47.3349 11.3724 46.9817 11.4883 46.6024 11.5913C47.8973 12.9566 49.0483 14.9144 50.0293 17.3101C51.0365 17.1169 52.0567 16.8593 53.0377 16.5502C53.6917 16.357 54.3327 16.1251 54.9605 15.8675C53.1685 13.6908 51.1019 11.952 48.826 10.7799H48.8129ZM47.6749 59.9048C48.0673 60.0464 48.4467 60.201 48.8129 60.3813C51.0888 59.2221 53.1555 57.4704 54.9474 55.2808C54.3457 55.0361 53.7048 54.8042 53.0247 54.5981C52.0829 54.3148 51.0757 54.0572 50.0163 53.8382C49.0483 56.2339 47.8842 58.1917 46.5893 59.557C46.9686 59.6729 47.3218 59.776 47.6619 59.9048H47.6749ZM36.1515 11.1148C35.8899 11.0117 35.6414 10.8958 35.3798 10.7799C33.1169 11.952 31.0372 13.6908 29.2453 15.8804C29.7685 16.0994 30.3178 16.2926 30.8933 16.4729C31.9005 16.7949 32.9992 17.0783 34.1764 17.3101C35.1443 14.9144 36.3085 12.9566 37.6034 11.5913C37.1063 11.4625 36.6224 11.308 36.1515 11.1019V11.1148ZM35.3798 17.5291C37.2764 17.8382 39.343 18.0185 41.5012 18.0443V12.1452C40.6641 12.1194 39.8139 12.0293 39.0029 11.8876C37.6426 13.0983 36.4131 15.0303 35.3798 17.5162V17.5291ZM45.2028 11.9005C44.3657 12.0421 43.5417 12.1194 42.7046 12.1581V18.0572C44.7581 18.0443 46.8117 17.864 48.826 17.542C47.7927 15.0561 46.5632 13.1241 45.2028 11.9133V11.9005ZM83.0563 0.462891V72.4629H0.848633V0.462891H83.0563ZM16.5838 20.6976H17.9965C19.6576 18.1344 21.7374 15.8547 24.1441 13.9355C24.9158 14.8243 26.0276 15.6228 27.4271 16.3312C26.4331 17.7094 25.5698 19.1649 24.8504 20.6976H26.1715L26.2761 20.4786C26.9301 19.2035 27.6757 17.9799 28.5128 16.8336C29.1799 17.1169 29.86 17.3616 30.5402 17.5935C31.5997 17.9284 32.6722 18.2117 33.7579 18.4307C33.5355 19.0489 33.3262 19.6929 33.13 20.3627C33.0908 20.4786 33.0646 20.5946 33.0254 20.7105H34.268C34.4773 20.0278 34.6996 19.3452 34.9351 18.6625C37.0933 19.0232 39.2907 19.2164 41.4881 19.2421V20.7105H42.6915V19.2421C44.8889 19.2164 47.0864 19.0232 49.2445 18.6625C49.4931 19.3323 49.7023 20.0149 49.9116 20.6847L51.1542 20.6976L51.0496 20.3498C50.8534 19.6929 50.6441 19.0489 50.4217 18.4178C51.4551 18.1988 52.4361 17.9541 53.3647 17.6708C54.1888 17.4132 54.9605 17.1298 55.6799 16.8336C56.5693 18.0572 57.3541 19.3452 58.0212 20.6847H59.3423C58.6229 19.1649 57.7596 17.6965 56.7786 16.3183C58.1651 15.6099 59.2769 14.7985 60.0617 13.9226C62.4553 15.8418 64.535 18.1216 66.2093 20.6847H67.6219C62.403 12.1709 52.9069 6.45216 42.116 6.45216C31.325 6.45216 21.8158 12.1709 16.5969 20.6847L16.5838 20.6976ZM41.4227 42.581C41.3835 43.3022 40.821 44.0879 38.8852 44.1008C37.6818 44.1008 35.6675 43.7144 34.0979 42.7484C32.476 41.7438 31.325 40.2368 30.1478 40.2368H27.2702C26.42 40.2368 25.7791 41.4475 25.7791 42.2976V47.733C25.7791 48.699 26.4461 49.0081 27.1525 48.9953L29.9647 48.9566C31.822 48.9309 30.9849 47.4883 31.7959 47.192C33.9148 46.4064 33.9017 49.4203 39.5392 49.4976C45.9092 49.5878 49.6631 45.9298 49.5715 41.7437C49.4538 36.4758 45.4383 34.4021 38.8983 32.5988C36.3739 31.9033 33.8102 31.7488 33.9148 29.7781C33.9541 29.0568 34.5165 28.2711 36.4523 28.2582C37.6557 28.2582 39.67 28.6446 41.2396 29.6107C42.8615 30.6153 44.0126 32.1094 45.1898 32.1094H48.0673C48.9175 32.1094 49.5585 30.8987 49.5585 30.0486V24.6132C49.5585 23.6471 48.8914 23.338 48.1851 23.3509L45.3729 23.3895C43.5155 23.4024 44.3526 24.8579 43.5417 25.1541C41.4227 25.9398 41.4358 22.9259 35.7853 22.8486C29.4153 22.7584 25.6614 26.4164 25.7529 30.6024C25.8706 35.8704 29.9123 37.7895 34.922 39.3996C37.4202 40.211 41.5143 40.6103 41.4096 42.5681L41.4227 42.581ZM8.73586 48.8536H23.6209C24.1964 48.8536 24.6542 48.4028 24.6542 47.8361V43.1477C24.6542 42.581 24.1833 42.1173 23.6209 42.1173H20.534V29.3659H23.6209C24.1964 29.3659 24.6542 28.9022 24.6542 28.3484V23.6471C24.6542 23.0804 24.1833 22.6296 23.6209 22.6296H8.73586C8.16034 22.6296 7.70254 23.0933 7.70254 23.6471V28.3355C7.70254 28.9022 8.17342 29.3531 8.73586 29.3531H12.0189V42.1044H8.73586C8.16034 42.1044 7.70254 42.5681 7.70254 43.1348V47.8232C7.70254 48.4028 8.16034 48.8536 8.73586 48.8536ZM67.6088 50.4636H66.1962C64.535 53.0268 62.4553 55.3065 60.0486 57.2257C59.2769 56.3369 58.1651 55.5384 56.7655 54.83C57.7596 53.4518 58.6229 51.9963 59.3292 50.4636H58.0081C57.3411 51.816 56.5563 53.104 55.6668 54.3276C54.9082 54.0056 54.1365 53.7223 53.3517 53.4904C52.3837 53.1942 51.4027 52.9366 50.4087 52.7434C50.631 52.1251 50.8403 51.4811 51.0365 50.8114L51.1411 50.4636H49.8855C49.6893 51.1591 49.4538 51.8418 49.2184 52.5115C47.0602 52.1509 44.8628 51.9577 42.6653 51.9319V50.4636H41.462V51.9319C39.2645 51.9448 37.0671 52.1509 34.9089 52.5115C34.6604 51.8289 34.438 51.1591 34.2418 50.4636H32.9992C33.0254 50.5795 33.0646 50.6954 33.1039 50.8114C33.3001 51.4683 33.5093 52.1251 33.7317 52.7434C32.5937 52.9752 31.5081 53.2586 30.514 53.5806C29.7946 53.8124 29.1145 54.07 28.4866 54.3405C27.6495 53.1813 26.8909 51.9706 26.2499 50.6954L26.1453 50.4765H24.8242C25.5567 51.9963 26.4069 53.4647 27.401 54.8429C26.0145 55.5513 24.9027 56.3627 24.1179 57.2386C21.7243 55.3194 19.6446 53.0396 17.9703 50.4765H16.5577C21.7766 58.9903 31.2727 64.709 42.0636 64.709C52.8677 64.709 62.3638 58.9903 67.5827 50.4765L67.6088 50.4636ZM77.9813 36.025C77.9813 27.2536 71.7944 22.7584 64.208 22.7584C56.6217 22.7584 50.4348 27.2536 50.4348 36.025C50.4348 44.7963 56.6217 49.2915 64.208 49.2915C71.7944 49.2915 77.9813 44.7963 77.9813 36.025ZM35.3798 60.3813C35.6283 60.2654 35.8768 60.1495 36.1515 60.0464C36.6224 59.8661 37.1194 59.6987 37.6034 59.5699C36.3085 58.2046 35.1574 56.2597 34.1764 53.8511C33.0123 54.0829 31.9136 54.3663 30.8933 54.6883C30.3178 54.8686 29.7554 55.0747 29.2453 55.2808C31.0372 57.4704 33.1039 59.2092 35.3798 60.3684V60.3813ZM42.1029 60.201C40.0101 60.201 38.1004 60.5488 36.5962 61.1541C35.6675 61.5276 34.9089 61.9785 34.3988 62.4808C36.8578 63.1634 39.4346 63.5241 42.1029 63.5241C44.7712 63.5241 47.361 63.1634 49.807 62.4808C49.2184 61.9141 48.3551 61.4117 47.2695 61.0253C45.8176 60.5101 44.0387 60.201 42.1029 60.201ZM56.0592 55.796C54.2934 58.0114 52.2399 59.8275 49.9901 61.1026C50.3825 61.386 50.7487 61.7209 51.0627 62.1073C53.9533 61.1541 56.674 59.7631 59.1199 57.9727C58.4267 57.187 57.3672 56.4529 56.0592 55.8089V55.796ZM64.208 28.7734C61.1342 28.7734 60.2579 31.2336 60.2579 36.025C60.2579 40.8164 61.1342 43.2765 64.208 43.2765C67.2818 43.2765 68.1582 40.8164 68.1582 36.025C68.1582 31.2336 67.2688 28.7734 64.208 28.7734ZM28.1335 55.796C26.8255 56.44 25.7791 57.1742 25.0728 57.9598C27.5187 59.7502 30.2393 61.1541 33.1431 62.0944C33.4439 61.708 33.8102 61.3731 34.2157 61.0897C31.9528 59.8146 29.8993 58.0114 28.1465 55.7831L28.1335 55.796ZM48.8129 53.6321C46.9032 53.323 44.8497 53.1427 42.6915 53.1169V59.016C43.5286 59.0418 44.3788 59.1319 45.1898 59.2736C46.5501 58.0758 47.7796 56.1309 48.8129 53.645V53.6321ZM38.9898 59.2736C39.7877 59.1319 40.6248 59.0547 41.4881 59.016V53.1169C39.4346 53.1427 37.3941 53.323 35.3667 53.6321C36.4 56.118 37.6295 58.05 38.9898 59.2607V59.2736Z" fill="white"></path>
                                <path d="M93.6377 49.3043V44.1265C104.978 36.0507 107.097 34.2732 107.097 31.723C107.097 29.9455 105.41 29.0181 103.369 29.0181C100.583 29.0181 98.3857 30.1001 96.5022 31.8389L92.7744 27.4339C95.5604 24.4199 99.7199 23.1448 103.369 23.1448C109.53 23.1448 113.964 26.5451 113.964 31.723C113.964 35.6643 111.099 39.026 104.076 43.5083H114.16V49.3043H93.6377Z" fill="white"></path>
                                <path d="M120.438 49.3043L129.307 29.3272H116.554V23.5311H137.076V28.1293L127.855 49.3043H120.438Z" fill="white"></path>
                                <path d="M149.934 23.1448C157.585 23.1448 161.156 29.6364 161.156 36.4371C161.156 43.2378 157.585 49.768 149.934 49.768C142.282 49.768 138.711 43.2378 138.711 36.4371C138.711 29.6364 142.282 23.1448 149.934 23.1448ZM149.934 29.0181C146.794 29.0181 145.539 31.8775 145.539 36.4371C145.539 40.9967 146.794 43.8947 149.934 43.8947C153.073 43.8947 154.328 40.9967 154.328 36.4371C154.328 31.8775 153.073 29.0181 149.934 29.0181Z" fill="white"></path>
                                <path d="M174.419 23.1448C182.071 23.1448 185.642 29.6364 185.642 36.4371C185.642 43.2378 182.071 49.768 174.419 49.768C166.767 49.768 163.196 43.2378 163.196 36.4371C163.196 29.6364 166.767 23.1448 174.419 23.1448ZM174.419 29.0181C171.28 29.0181 170.024 31.8775 170.024 36.4371C170.024 40.9967 171.28 43.8947 174.419 43.8947C177.558 43.8947 178.814 40.9967 178.814 36.4371C178.814 31.8775 177.558 29.0181 174.419 29.0181Z" fill="white"></path>
                                <path d="M195.099 49.3044V32.0321L190.704 36.3985L186.858 32.4185L196.001 23.5312H201.848V49.3044H195.099Z" fill="white"></path>
                            </g>
                            <defs>
                                <clipPath id="">
                                    <rect width="201" height="72" fill="white" transform="translate(0.848633 0.462891)"></rect>
                                </clipPath>
                            </defs>
                        </svg>