<svg width="112" height="32" viewBox="0 0 112 32" fill="none" xmlns="http://www.w3.org/2000/svg">
            <g clip-path="url(#clip0_75_1421)">
            <path d="M31.4346 0.502594H0.349609V31.502H31.4346V0.502594Z" fill="#E7313D"></path>
            <path d="M15.8955 6.86057C13.3639 6.86057 11.3093 8.90951 11.3093 11.4341C11.3093 13.9587 13.3639 16.0076 15.8955 16.0076V6.86057Z" fill="white"></path>
            <path d="M6.7251 16.0092C6.7251 18.5338 8.7797 20.5828 11.3113 20.5828C13.8428 20.5828 15.8974 18.5338 15.8974 16.0092H6.7251Z" fill="white"></path>
            <path d="M15.8989 25.1563C18.4305 25.1563 20.4851 23.1074 20.4851 20.5828C20.4851 18.0582 18.4305 16.0092 15.8989 16.0092V25.1563Z" fill="white"></path>
            <path d="M25.0712 16.0058C25.0712 13.4812 23.0166 11.4323 20.4851 11.4323C17.9535 11.4323 15.8989 13.4812 15.8989 16.0058H25.0712Z" fill="white"></path>
            <path d="M37.7615 20.0006L40.9993 18.1254C41.5496 19.4334 42.5219 20.092 43.9253 20.092C45.0901 20.092 45.6588 19.7536 45.6588 19.1042C45.6588 18.6651 45.3195 18.3267 44.6682 18.0522C44.3931 17.9425 43.7602 17.7595 42.8062 17.4851C40.0912 16.7076 38.4035 15.3904 38.4035 12.8567C38.4035 11.4846 38.8897 10.387 39.8619 9.54546C40.8525 8.70393 42.0816 8.27402 43.5492 8.27402C46.0257 8.27402 48.0345 9.45399 49.0526 11.6493L45.879 13.5061C45.4112 12.4085 44.6499 11.8597 43.5675 11.8597C42.6595 11.8597 42.1917 12.2621 42.1917 12.8293C42.1917 13.4878 42.7237 13.8446 44.7324 14.43C45.4479 14.6404 46.0257 14.8325 46.466 15.0246C46.9063 15.2166 47.3741 15.4636 47.906 15.8295C48.9425 16.5064 49.4562 17.604 49.4562 19.0584C49.4562 20.5128 48.9517 21.6379 47.906 22.4611C46.8604 23.2844 45.5121 23.6868 43.8152 23.6868C40.6783 23.6868 38.587 22.269 37.7615 20.0097V20.0006Z" fill="#292D37"></path>
            <path d="M60.3047 14.1087C61.2586 15.1607 61.7447 16.4961 61.7447 18.0786C61.7447 19.661 61.2586 20.9965 60.3047 22.0667C59.3508 23.1186 58.1859 23.6492 56.7642 23.6492C55.4709 23.6492 54.4803 23.2284 53.7557 22.3777V27.5732H50.2427V12.8007H53.7557V13.7703C54.4803 12.9288 55.4709 12.4989 56.7642 12.4989C58.1859 12.4989 59.3508 13.0294 60.3047 14.0996V14.1087ZM55.9845 20.3836C56.6449 20.3836 57.1953 20.1733 57.5897 19.7525C57.9841 19.3317 58.2042 18.7829 58.2042 18.0877C58.2042 17.3925 57.9933 16.8437 57.5897 16.423C57.1861 16.0022 56.6358 15.7918 55.9845 15.7918C55.3333 15.7918 54.7738 16.0022 54.3794 16.423C53.9758 16.8437 53.7648 17.3925 53.7648 18.0877C53.7648 18.7829 53.9758 19.3317 54.3794 19.7525C54.783 20.1733 55.3333 20.3836 55.9845 20.3836Z" fill="#292D37"></path>
            <path d="M70.5413 12.5909H74.0543V23.1466H70.5413V22.177C69.8167 23.0185 68.8261 23.4484 67.5328 23.4484C66.1111 23.4484 64.9279 22.9179 63.974 21.866C63.02 20.7866 62.5522 19.4603 62.5522 17.8779C62.5522 16.2954 63.02 14.9599 63.974 13.908C64.9279 12.8287 66.1111 12.3073 67.5328 12.3073C68.8261 12.3073 69.8167 12.7281 70.5413 13.5787V12.6092V12.5909ZM68.3216 20.1738C68.982 20.1738 69.5324 19.9634 69.9268 19.5426C70.3304 19.1219 70.5413 18.573 70.5413 17.8779C70.5413 17.1827 70.3304 16.6339 69.9268 16.2131C69.5232 15.7923 68.9729 15.582 68.3216 15.582C67.6704 15.582 67.1109 15.7923 66.7165 16.2131C66.3129 16.6339 66.1019 17.1827 66.1019 17.8779C66.1019 18.573 66.3129 19.1219 66.7165 19.5426C67.1201 19.9634 67.6704 20.1738 68.3216 20.1738Z" fill="#292D37"></path>
            <path d="M78.6346 14.562C79.0382 13.1899 80.3498 12.385 81.8082 12.385V16.2725C81.001 16.1444 80.2581 16.2908 79.6068 16.7115C78.9464 17.1323 78.6346 17.8275 78.6346 18.7788V23.1511H75.1216V12.5953H78.6346V14.562Z" fill="#292D37"></path>
            <path d="M93.8336 23.1569H89.8528L88.0092 20.5592L86.1656 23.1569H82.2031L86.0371 17.7693L82.3499 12.5921H86.3123L88.0092 14.9794L89.7061 12.5921H93.6869L89.9996 17.7693L93.8336 23.1569Z" fill="#292D37"></path>
            <path d="M95.2812 8.37757H99.0694V23.1593H95.2812V8.37757Z" fill="#292D37"></path>
            <path d="M111.259 8.37757V12.0273H107.599V23.1593H103.811V12.0273H100.151V8.37757H111.268H111.259Z" fill="#292D37"></path>
            </g>
            <defs>
            <clipPath id="clip0_75_1421">
            <rect width="112" height="32" fill="white"></rect>
            </clipPath>
            </defs>
            </svg>