<svg width="25" height="25" viewBox="0 0 25 25" fill="none" xmlns="http://www.w3.org/2000/svg">
                                                <path d="M11.8066 13.7461C11.1933 13.107 10.4506 12.5929 9.62061 12.2461H15.8662C16.2804 12.2461 16.6162 12.5819 16.6162 12.9961C16.6162 13.4103 16.2804 13.7461 15.8662 13.7461H11.8066ZM12.7466 14.9961C13.0164 15.4626 13.23 15.9657 13.3779 16.4961H15.8662C16.2804 16.4961 16.6162 16.1603 16.6162 15.7461C16.6162 15.3319 16.2804 14.9961 15.8662 14.9961H12.7466ZM13.6162 18.2461C13.6162 18.5862 13.5901 18.9201 13.5398 19.2461H15.8662C16.2804 19.2461 16.6162 18.9103 16.6162 18.4961C16.6162 18.0819 16.2804 17.7461 15.8662 17.7461H13.5973C13.6098 17.9111 13.6162 18.0779 13.6162 18.2461ZM6.11621 4.74609C6.11621 4.47109 6.34021 4.24609 6.61621 4.24609H12.6162V8.74609C12.6162 9.85009 13.5122 10.7461 14.6162 10.7461H19.1162V20.7461C19.1162 21.0211 18.8922 21.2461 18.6162 21.2461H12.884C12.5968 21.7971 12.233 22.3018 11.8066 22.7461H18.6162C19.7202 22.7461 20.6162 21.8501 20.6162 20.7461V10.5741C20.6162 10.0441 20.4052 9.53509 20.0302 9.16009L14.2012 3.33209C14.1862 3.31714 14.1693 3.30417 14.1525 3.29129C14.14 3.28176 14.1277 3.27229 14.1162 3.26209C14.0452 3.19809 13.9752 3.13509 13.8972 3.08209C13.8719 3.06503 13.8443 3.05157 13.8167 3.03816C13.8007 3.03035 13.7847 3.02256 13.7692 3.01409C13.7525 3.00468 13.7359 2.99506 13.7192 2.98542C13.665 2.95406 13.6106 2.92257 13.5532 2.89809C13.3562 2.81609 13.1442 2.77509 12.9292 2.76009C12.9095 2.75883 12.89 2.75617 12.8704 2.7535C12.8433 2.7498 12.8161 2.74609 12.7882 2.74609H6.61621C5.51221 2.74609 4.61621 3.64209 4.61621 4.74609V12.2443C5.09038 12.0465 5.593 11.9033 6.11621 11.8225V4.74609ZM17.9942 9.24609H14.6162C14.3402 9.24609 14.1162 9.02109 14.1162 8.74609V5.36709L17.9942 9.24609ZM12.6162 18.2461C12.6162 15.2085 10.1538 12.7461 7.11621 12.7461C4.07864 12.7461 1.61621 15.2085 1.61621 18.2461C1.61621 21.2837 4.07864 23.7461 7.11621 23.7461C10.1538 23.7461 12.6162 21.2837 12.6162 18.2461ZM7.11621 18.2462H9.11621C9.39235 18.2462 9.61621 18.47 9.61621 18.7462C9.61621 19.0223 9.39235 19.2462 9.11621 19.2462H6.61621C6.34007 19.2462 6.11621 19.0223 6.11621 18.7462V18.7446V15.746C6.11621 15.4699 6.34007 15.246 6.61621 15.246C6.89235 15.246 7.11621 15.4699 7.11621 15.746V18.2462Z" fill="#BBBBCC"></path>
                                            </svg>