<svg width="25" height="25" viewBox="0 0 25 25" fill="none" xmlns="http://www.w3.org/2000/svg">
                                                <path d="M18.5107 3.74609C20.3056 3.74609 21.7607 5.20116 21.7607 6.99609V18.4961C21.7607 20.291 20.3056 21.7461 18.5107 21.7461H7.01074C5.21581 21.7461 3.76074 20.291 3.76074 18.4961V6.99609C3.76074 5.20116 5.21581 3.74609 7.01074 3.74609H18.5107ZM18.5107 5.24609H7.01074C6.04424 5.24609 5.26074 6.02959 5.26074 6.99609V18.4961C5.26074 19.4626 6.04424 20.2461 7.01074 20.2461H18.5107C19.4772 20.2461 20.2607 19.4626 20.2607 18.4961V6.99609C20.2607 6.02959 19.4772 5.24609 18.5107 5.24609ZM17.0107 11.7461C17.4249 11.7461 17.7607 12.0819 17.7607 12.4961V16.9961C17.7607 17.4103 17.4249 17.7461 17.0107 17.7461H8.51074C8.09653 17.7461 7.76074 17.4103 7.76074 16.9961V12.4961C7.76074 12.0819 8.09653 11.7461 8.51074 11.7461H17.0107ZM16.2607 13.2461H9.26074V16.2461H16.2607V13.2461ZM8.51074 7.99609H17.0107C17.4249 7.99609 17.7607 8.33188 17.7607 8.74609C17.7607 9.12579 17.4785 9.43958 17.1125 9.48924L17.0107 9.49609H8.51074C8.09653 9.49609 7.76074 9.1603 7.76074 8.74609C7.76074 8.36639 8.04289 8.0526 8.40897 8.00294L8.51074 7.99609Z" fill="#BBBBCC"></path>
                                                <rect x="8.74121" y="12.8711" width="7.875" height="3.875" fill="#BBBBCC"></rect>
                                            </svg>